<svg width="991" height="793" viewBox="0 0 991 793" fill="none" xmlns="http://www.w3.org/2000/svg">
<g opacity="0.5">
<mask id="mask0_40_89" style="mask-type:alpha" maskUnits="userSpaceOnUse" x="0" y="0" width="991" height="991">
<g opacity="0.5">
<path d="M991 0H0V991H991V0Z" fill="url(#paint0_radial_40_89)"/>
</g>
</mask>
<g mask="url(#mask0_40_89)">
<g opacity="0.25">
<path d="M99.5 0.5H0.5V99.5H99.5V0.5Z" stroke="white"/>
<path d="M198.5 0.5H99.5V99.5H198.5V0.5Z" stroke="white"/>
<path d="M297.5 0.5H198.5V99.5H297.5V0.5Z" stroke="white"/>
<path d="M396.5 0.5H297.5V99.5H396.5V0.5Z" stroke="white"/>
<path d="M495.5 0.5H396.5V99.5H495.5V0.5Z" stroke="white"/>
<path d="M594.5 0.5H495.5V99.5H594.5V0.5Z" stroke="white"/>
<path d="M693.5 0.5H594.5V99.5H693.5V0.5Z" stroke="white"/>
<path d="M792.5 0.5H693.5V99.5H792.5V0.5Z" stroke="white"/>
<path d="M891.5 0.5H792.5V99.5H891.5V0.5Z" stroke="white"/>
<path d="M990.5 0.5H891.5V99.5H990.5V0.5Z" stroke="white"/>
<path d="M99.5 99.5H0.5V198.5H99.5V99.5Z" stroke="white"/>
<path d="M198.5 99.5H99.5V198.5H198.5V99.5Z" stroke="white"/>
<path d="M297.5 99.5H198.5V198.5H297.5V99.5Z" stroke="white"/>
<path d="M396.5 99.5H297.5V198.5H396.5V99.5Z" stroke="white"/>
<path d="M495.5 99.5H396.5V198.5H495.5V99.5Z" stroke="white"/>
<path d="M594.5 99.5H495.5V198.5H594.5V99.5Z" stroke="white"/>
<path d="M693.5 99.5H594.5V198.5H693.5V99.5Z" stroke="white"/>
<path d="M792.5 99.5H693.5V198.5H792.5V99.5Z" stroke="white"/>
<path d="M891.5 99.5H792.5V198.5H891.5V99.5Z" stroke="white"/>
<path d="M990.5 99.5H891.5V198.5H990.5V99.5Z" stroke="white"/>
<path d="M99.5 198.5H0.5V297.5H99.5V198.5Z" stroke="white"/>
<path d="M198.5 198.5H99.5V297.5H198.5V198.5Z" stroke="white"/>
<path d="M297.5 198.5H198.5V297.5H297.5V198.5Z" stroke="white"/>
<path d="M396.5 198.5H297.5V297.5H396.5V198.5Z" stroke="white"/>
<path d="M495.5 198.5H396.5V297.5H495.5V198.5Z" stroke="white"/>
<path d="M594.5 198.5H495.5V297.5H594.5V198.5Z" stroke="white"/>
<path d="M693.5 198.5H594.5V297.5H693.5V198.5Z" stroke="white"/>
<path d="M792.5 198.5H693.5V297.5H792.5V198.5Z" stroke="white"/>
<path d="M891.5 198.5H792.5V297.5H891.5V198.5Z" stroke="white"/>
<path d="M990.5 198.5H891.5V297.5H990.5V198.5Z" stroke="white"/>
<path d="M99.5 297.5H0.5V396.5H99.5V297.5Z" stroke="white"/>
<path d="M198.5 297.5H99.5V396.5H198.5V297.5Z" stroke="white"/>
<path d="M297.5 297.5H198.5V396.5H297.5V297.5Z" stroke="white"/>
<path d="M396.5 297.5H297.5V396.5H396.5V297.5Z" stroke="white"/>
<path d="M495.5 297.5H396.5V396.5H495.5V297.5Z" stroke="white"/>
<path d="M594.5 297.5H495.5V396.5H594.5V297.5Z" stroke="white"/>
<path d="M693.5 297.5H594.5V396.5H693.5V297.5Z" stroke="white"/>
<path d="M792.5 297.5H693.5V396.5H792.5V297.5Z" stroke="white"/>
<path d="M891.5 297.5H792.5V396.5H891.5V297.5Z" stroke="white"/>
<path d="M990.5 297.5H891.5V396.5H990.5V297.5Z" stroke="white"/>
<path d="M99.5 396.5H0.5V495.5H99.5V396.5Z" stroke="white"/>
<path d="M198.5 396.5H99.5V495.5H198.5V396.5Z" stroke="white"/>
<path d="M297.5 396.5H198.5V495.5H297.5V396.5Z" stroke="white"/>
<path d="M396.5 396.5H297.5V495.5H396.5V396.5Z" stroke="white"/>
<path d="M495.5 396.5H396.5V495.5H495.5V396.5Z" stroke="white"/>
<path d="M594.5 396.5H495.5V495.5H594.5V396.5Z" stroke="white"/>
<path d="M693.5 396.5H594.5V495.5H693.5V396.5Z" stroke="white"/>
<path d="M792.5 396.5H693.5V495.5H792.5V396.5Z" stroke="white"/>
<path d="M891.5 396.5H792.5V495.5H891.5V396.5Z" stroke="white"/>
<path d="M990.5 396.5H891.5V495.5H990.5V396.5Z" stroke="white"/>
<path d="M99.5 495.5H0.5V594.5H99.5V495.5Z" stroke="white"/>
<path d="M198.5 495.5H99.5V594.5H198.5V495.5Z" stroke="white"/>
<path d="M297.5 495.5H198.5V594.5H297.5V495.5Z" stroke="white"/>
<path d="M396.5 495.5H297.5V594.5H396.5V495.5Z" stroke="white"/>
<path d="M495.5 495.5H396.5V594.5H495.5V495.5Z" stroke="white"/>
<path d="M594.5 495.5H495.5V594.5H594.5V495.5Z" stroke="white"/>
<path d="M693.5 495.5H594.5V594.5H693.5V495.5Z" stroke="white"/>
<path d="M792.5 495.5H693.5V594.5H792.5V495.5Z" stroke="white"/>
<path d="M891.5 495.5H792.5V594.5H891.5V495.5Z" stroke="white"/>
<path d="M990.5 495.5H891.5V594.5H990.5V495.5Z" stroke="white"/>
<path d="M99.5 594.5H0.5V693.5H99.5V594.5Z" stroke="white"/>
<path d="M198.5 594.5H99.5V693.5H198.5V594.5Z" stroke="white"/>
<path d="M297.5 594.5H198.5V693.5H297.5V594.5Z" stroke="white"/>
<path d="M396.5 594.5H297.5V693.5H396.5V594.5Z" stroke="white"/>
<path d="M495.5 594.5H396.5V693.5H495.5V594.5Z" stroke="white"/>
<path d="M594.5 594.5H495.5V693.5H594.5V594.5Z" stroke="white"/>
<path d="M693.5 594.5H594.5V693.5H693.5V594.5Z" stroke="white"/>
<path d="M792.5 594.5H693.5V693.5H792.5V594.5Z" stroke="white"/>
<path d="M891.5 594.5H792.5V693.5H891.5V594.5Z" stroke="white"/>
<path d="M990.5 594.5H891.5V693.5H990.5V594.5Z" stroke="white"/>
<path d="M99.5 693.5H0.5V792.5H99.5V693.5Z" stroke="white"/>
<path d="M198.5 693.5H99.5V792.5H198.5V693.5Z" stroke="white"/>
<path d="M297.5 693.5H198.5V792.5H297.5V693.5Z" stroke="white"/>
<path d="M396.5 693.5H297.5V792.5H396.5V693.5Z" stroke="white"/>
<path d="M495.5 693.5H396.5V792.5H495.5V693.5Z" stroke="white"/>
<path d="M693.5 693.5H594.5V792.5H693.5V693.5Z" stroke="white"/>
<path d="M792.5 693.5H693.5V792.5H792.5V693.5Z" stroke="white"/>
<path d="M891.5 693.5H792.5V792.5H891.5V693.5Z" stroke="white"/>
<path d="M990.5 693.5H891.5V792.5H990.5V693.5Z" stroke="white"/>
</g>
</g>
</g>
<defs>
<radialGradient id="paint0_radial_40_89" cx="0" cy="0" r="1" gradientUnits="userSpaceOnUse" gradientTransform="translate(495.5 495.5) rotate(90) scale(495.5)">
<stop/>
<stop offset="1" stop-opacity="0"/>
</radialGradient>
</defs>
</svg>
