<svg width="17" height="17" viewBox="0 0 17 17" fill="none" xmlns="http://www.w3.org/2000/svg">
<path d="M14.9853 1.53326H12.963V0.911041C12.963 0.746017 12.892 0.587752 12.7656 0.471063C12.6392 0.354374 12.4677 0.288818 12.289 0.288818C12.1102 0.288818 11.9387 0.354374 11.8123 0.471063C11.6859 0.587752 11.6149 0.746017 11.6149 0.911041V1.53326H4.87416V0.911041C4.87416 0.746017 4.80314 0.587752 4.67673 0.471063C4.55031 0.354374 4.37886 0.288818 4.20008 0.288818C4.02131 0.288818 3.84986 0.354374 3.72344 0.471063C3.59703 0.587752 3.52601 0.746017 3.52601 0.911041V1.53326H1.50379C1.14624 1.53326 0.80333 1.66437 0.550503 1.89775C0.297676 2.13113 0.15564 2.44766 0.15564 2.77771V15.2222C0.15564 15.5522 0.297676 15.8687 0.550503 16.1021C0.80333 16.3355 1.14624 16.4666 1.50379 16.4666H14.9853C15.3428 16.4666 15.6857 16.3355 15.9386 16.1021C16.1914 15.8687 16.3334 15.5522 16.3334 15.2222V2.77771C16.3334 2.44766 16.1914 2.13113 15.9386 1.89775C15.6857 1.66437 15.3428 1.53326 14.9853 1.53326ZM3.52601 2.77771V3.39993C3.52601 3.56495 3.59703 3.72322 3.72344 3.83991C3.84986 3.9566 4.02131 4.02215 4.20008 4.02215C4.37886 4.02215 4.55031 3.9566 4.67673 3.83991C4.80314 3.72322 4.87416 3.56495 4.87416 3.39993V2.77771H11.6149V3.39993C11.6149 3.56495 11.6859 3.72322 11.8123 3.83991C11.9387 3.9566 12.1102 4.02215 12.289 4.02215C12.4677 4.02215 12.6392 3.9566 12.7656 3.83991C12.892 3.72322 12.963 3.56495 12.963 3.39993V2.77771H14.9853V5.2666H1.50379V2.77771H3.52601ZM14.9853 15.2222H1.50379V6.51104H14.9853V15.2222Z" fill="#ACACAC"/>
</svg>
