<svg width="187" height="25" viewBox="0 0 187 25" fill="none" xmlns="http://www.w3.org/2000/svg">
<path d="M3.85001 9.41795C3.70405 8.76047 3.72646 8.07679 3.91517 7.43029C4.10387 6.78379 4.45276 6.19539 4.92948 5.71967C5.4062 5.24395 5.99532 4.89629 6.64222 4.70894C7.28911 4.52159 7.97284 4.50061 8.63001 4.64795C8.99172 4.08225 9.49001 3.61671 10.079 3.29423C10.6679 2.97176 11.3286 2.80273 12 2.80273C12.6715 2.80273 13.3321 2.97176 13.9211 3.29423C14.51 3.61671 15.0083 4.08225 15.37 4.64795C16.0282 4.49997 16.7131 4.52086 17.361 4.70866C18.0089 4.89647 18.5988 5.24509 19.0759 5.7221C19.5529 6.19912 19.9015 6.78902 20.0893 7.43695C20.2771 8.08488 20.298 8.76978 20.15 9.42795C20.7157 9.78966 21.1812 10.288 21.5037 10.8769C21.8262 11.4658 21.9952 12.1265 21.9952 12.7979C21.9952 13.4694 21.8262 14.1301 21.5037 14.719C21.1812 15.3079 20.7157 15.8062 20.15 16.1679C20.2973 16.8251 20.2764 17.5088 20.089 18.1557C19.9017 18.8026 19.554 19.3918 19.0783 19.8685C18.6026 20.3452 18.0142 20.6941 17.3677 20.8828C16.7212 21.0715 16.0375 21.0939 15.38 20.9479C15.0188 21.5158 14.5201 21.9834 13.9301 22.3073C13.3402 22.6312 12.678 22.801 12.005 22.801C11.332 22.801 10.6698 22.6312 10.0799 22.3073C9.48993 21.9834 8.99125 21.5158 8.63001 20.9479C7.97284 21.0953 7.28911 21.0743 6.64222 20.887C5.99532 20.6996 5.4062 20.352 4.92948 19.8762C4.45276 19.4005 4.10387 18.8121 3.91517 18.1656C3.72646 17.5191 3.70405 16.8354 3.85001 16.1779C3.27997 15.8172 2.81042 15.3181 2.48506 14.7272C2.15969 14.1362 1.98907 13.4726 1.98907 12.7979C1.98907 12.1233 2.15969 11.4597 2.48506 10.8687C2.81042 10.2778 3.27997 9.77871 3.85001 9.41795Z" stroke="#FF5C00" stroke-width="2" stroke-linecap="round" stroke-linejoin="round"/>
<path d="M9 12.7979L11 14.7979L15 10.7979" stroke="#FF5C00" stroke-width="2" stroke-linecap="round" stroke-linejoin="round"/>
<path d="M37.408 17.9899C36.8107 17.9899 36.2347 17.9312 35.68 17.8139C35.136 17.6965 34.6507 17.5099 34.224 17.2539C33.7973 16.9872 33.456 16.6459 33.2 16.2299C32.9547 15.8139 32.832 15.3019 32.832 14.6939C32.832 14.6405 32.832 14.5872 32.832 14.5339C32.8427 14.4805 32.848 14.4272 32.848 14.3739H34.384C34.384 14.4059 34.3787 14.4592 34.368 14.5339C34.368 14.5979 34.368 14.6565 34.368 14.7099C34.368 15.1365 34.496 15.4992 34.752 15.7979C35.008 16.0965 35.36 16.3205 35.808 16.4699C36.2667 16.6085 36.784 16.6779 37.36 16.6779C37.616 16.6779 37.8827 16.6619 38.16 16.6299C38.448 16.5979 38.72 16.5445 38.976 16.4699C39.2427 16.3845 39.4773 16.2779 39.68 16.1499C39.8933 16.0112 40.0587 15.8459 40.176 15.6539C40.304 15.4512 40.368 15.2059 40.368 14.9179C40.368 14.5552 40.2613 14.2565 40.048 14.0219C39.8453 13.7765 39.5733 13.5792 39.232 13.4299C38.8907 13.2699 38.5013 13.1312 38.064 13.0139C37.6373 12.8859 37.1947 12.7632 36.736 12.6459C36.2773 12.5285 35.8293 12.3952 35.392 12.2459C34.9653 12.0859 34.5813 11.8939 34.24 11.6699C33.8987 11.4352 33.6213 11.1472 33.408 10.8059C33.2053 10.4645 33.104 10.0485 33.104 9.55785C33.104 9.09918 33.1947 8.68852 33.376 8.32585C33.568 7.96318 33.8453 7.65918 34.208 7.41385C34.5813 7.15785 35.04 6.96585 35.584 6.83785C36.128 6.69918 36.752 6.62985 37.456 6.62985C38.032 6.62985 38.5653 6.69385 39.056 6.82185C39.5573 6.93918 39.9947 7.12585 40.368 7.38185C40.752 7.62718 41.0507 7.94185 41.264 8.32585C41.4773 8.70985 41.584 9.17385 41.584 9.71785V9.90985H40.08V9.66985C40.08 9.30718 39.968 8.99785 39.744 8.74185C39.52 8.48585 39.2107 8.28852 38.816 8.14985C38.432 8.01118 37.9947 7.94185 37.504 7.94185C36.864 7.94185 36.3307 8.00585 35.904 8.13385C35.4773 8.25118 35.1573 8.42718 34.944 8.66185C34.7413 8.88585 34.64 9.14185 34.64 9.42985C34.64 9.76052 34.7413 10.0379 34.944 10.2619C35.1573 10.4859 35.4347 10.6725 35.776 10.8219C36.1173 10.9605 36.5067 11.0885 36.944 11.2059C37.3813 11.3232 37.824 11.4459 38.272 11.5739C38.7307 11.6912 39.1733 11.8299 39.6 11.9899C40.0373 12.1392 40.4267 12.3312 40.768 12.5659C41.12 12.7899 41.3973 13.0779 41.6 13.4299C41.8027 13.7712 41.904 14.1925 41.904 14.6939C41.904 15.4725 41.712 16.1072 41.328 16.5979C40.944 17.0779 40.416 17.4299 39.744 17.6539C39.072 17.8779 38.2933 17.9899 37.408 17.9899ZM47.2296 17.9899C46.3976 17.9899 45.6936 17.8352 45.1176 17.5259C44.5523 17.2059 44.1203 16.7205 43.8216 16.0699C43.5336 15.4192 43.3896 14.5925 43.3896 13.5899C43.3896 12.5765 43.5336 11.7499 43.8216 11.1099C44.1203 10.4592 44.5576 9.97918 45.1336 9.66985C45.7096 9.34985 46.4296 9.18985 47.2936 9.18985C48.083 9.18985 48.7443 9.34452 49.2776 9.65385C49.811 9.95252 50.211 10.4059 50.4776 11.0139C50.755 11.6112 50.8936 12.3632 50.8936 13.2699V13.9419H44.8456C44.867 14.6139 44.963 15.1685 45.1336 15.6059C45.315 16.0325 45.5816 16.3472 45.9336 16.5499C46.2856 16.7419 46.7283 16.8379 47.2616 16.8379C47.6243 16.8379 47.939 16.7952 48.2056 16.7099C48.483 16.6139 48.7123 16.4805 48.8936 16.3099C49.0856 16.1392 49.2296 15.9365 49.3256 15.7019C49.4216 15.4672 49.475 15.2112 49.4856 14.9339H50.8616C50.851 15.3819 50.7656 15.7979 50.6056 16.1819C50.4456 16.5552 50.211 16.8752 49.9016 17.1419C49.5923 17.4085 49.2136 17.6165 48.7656 17.7659C48.3176 17.9152 47.8056 17.9899 47.2296 17.9899ZM44.8776 12.8859H49.4376C49.4376 12.4165 49.3843 12.0219 49.2776 11.7019C49.171 11.3819 49.0163 11.1205 48.8136 10.9179C48.6216 10.7152 48.3923 10.5712 48.1256 10.4859C47.8696 10.3899 47.5763 10.3419 47.2456 10.3419C46.755 10.3419 46.339 10.4325 45.9976 10.6139C45.6563 10.7952 45.395 11.0725 45.2136 11.4459C45.0323 11.8192 44.9203 12.2992 44.8776 12.8859ZM52.6353 17.7979V9.38185H53.7713L53.8993 10.6459H54.0113C54.2246 10.3045 54.4646 10.0272 54.7313 9.81385C54.9979 9.60052 55.2913 9.44585 55.6113 9.34985C55.9313 9.24318 56.2779 9.18985 56.6513 9.18985C57.1953 9.18985 57.6646 9.30185 58.0593 9.52585C58.4539 9.73918 58.7473 10.1125 58.9393 10.6459H59.0353C59.2379 10.3045 59.4726 10.0325 59.7393 9.82985C60.0059 9.61652 60.3046 9.45652 60.6353 9.34985C60.9659 9.24318 61.3179 9.18985 61.6913 9.18985C62.2033 9.18985 62.6513 9.28052 63.0353 9.46185C63.4193 9.63252 63.7179 9.92052 63.9313 10.3259C64.1553 10.7205 64.2673 11.2539 64.2673 11.9259V17.7979H62.8593V12.1499C62.8593 11.8085 62.8166 11.5259 62.7313 11.3019C62.6566 11.0779 62.5446 10.9072 62.3953 10.7899C62.2459 10.6619 62.0699 10.5712 61.8673 10.5179C61.6753 10.4645 61.4673 10.4379 61.2433 10.4379C60.8699 10.4379 60.5233 10.5339 60.2033 10.7259C59.8939 10.9179 59.6433 11.1952 59.4513 11.5579C59.2593 11.9205 59.1633 12.3525 59.1633 12.8539V17.7979H57.7553V12.1499C57.7553 11.8085 57.7126 11.5259 57.6273 11.3019C57.5419 11.0779 57.4299 10.9072 57.2913 10.7899C57.1526 10.6619 56.9819 10.5712 56.7793 10.5179C56.5873 10.4645 56.3846 10.4379 56.1713 10.4379C55.7873 10.4379 55.4299 10.5339 55.0993 10.7259C54.7793 10.9179 54.5233 11.1952 54.3313 11.5579C54.1393 11.9205 54.0433 12.3525 54.0433 12.8539V17.7979H52.6353ZM72.9446 17.9899C72.134 17.9899 71.4513 17.8352 70.8966 17.5259C70.3526 17.2059 69.9366 16.7205 69.6486 16.0699C69.3713 15.4085 69.2326 14.5819 69.2326 13.5899C69.2326 12.5979 69.3713 11.7765 69.6486 11.1259C69.9366 10.4752 70.358 9.98985 70.9126 9.66985C71.478 9.34985 72.1713 9.18985 72.9926 9.18985C73.5686 9.18985 74.0646 9.26452 74.4806 9.41385C74.9073 9.56318 75.2593 9.78185 75.5366 10.0699C75.814 10.3579 76.0166 10.7045 76.1446 11.1099C76.2833 11.5152 76.3526 11.9792 76.3526 12.5019H74.9286C74.9286 12.0112 74.8593 11.6112 74.7206 11.3019C74.5926 10.9819 74.3846 10.7472 74.0966 10.5979C73.8086 10.4379 73.43 10.3579 72.9606 10.3579C72.4913 10.3579 72.086 10.4645 71.7446 10.6779C71.4033 10.8805 71.142 11.2059 70.9606 11.6539C70.7793 12.1019 70.6886 12.6939 70.6886 13.4299V13.7659C70.6886 14.4592 70.774 15.0352 70.9446 15.4939C71.126 15.9525 71.3873 16.2885 71.7286 16.5019C72.07 16.7152 72.486 16.8219 72.9766 16.8219C73.4566 16.8219 73.8406 16.7365 74.1286 16.5659C74.4273 16.3952 74.6406 16.1499 74.7686 15.8299C74.9073 15.5099 74.9766 15.1259 74.9766 14.6779H76.3526C76.3526 15.1472 76.2833 15.5845 76.1446 15.9899C76.0166 16.3952 75.814 16.7472 75.5366 17.0459C75.2593 17.3445 74.9073 17.5792 74.4806 17.7499C74.054 17.9099 73.542 17.9899 72.9446 17.9899ZM80.1535 17.9899C79.8442 17.9899 79.5348 17.9525 79.2255 17.8779C78.9162 17.8032 78.6282 17.6805 78.3615 17.5099C78.0948 17.3392 77.8815 17.1045 77.7215 16.8059C77.5615 16.4965 77.4815 16.1125 77.4815 15.6539C77.4815 15.0779 77.6202 14.6032 77.8975 14.2299C78.1748 13.8565 78.5588 13.5685 79.0495 13.3659C79.5508 13.1525 80.1428 13.0085 80.8255 12.9339C81.5082 12.8485 82.2495 12.8059 83.0495 12.8059V11.8459C83.0495 11.5365 82.9962 11.2699 82.8895 11.0459C82.7828 10.8219 82.5908 10.6512 82.3135 10.5339C82.0468 10.4059 81.6628 10.3419 81.1615 10.3419C80.6815 10.3419 80.2975 10.4059 80.0095 10.5339C79.7322 10.6512 79.5348 10.8059 79.4175 10.9979C79.3108 11.1899 79.2575 11.4032 79.2575 11.6379V11.8779H77.8975C77.8868 11.8245 77.8815 11.7712 77.8815 11.7179C77.8815 11.6645 77.8815 11.6005 77.8815 11.5259C77.8815 11.0139 78.0202 10.5872 78.2975 10.2459C78.5855 9.89385 78.9855 9.63252 79.4975 9.46185C80.0095 9.28052 80.5962 9.18985 81.2575 9.18985C81.9615 9.18985 82.5482 9.29118 83.0175 9.49385C83.4975 9.69652 83.8548 9.98452 84.0895 10.3579C84.3348 10.7312 84.4575 11.1792 84.4575 11.7019V16.2619C84.4575 16.4645 84.5055 16.6085 84.6015 16.6939C84.6975 16.7685 84.8148 16.8059 84.9535 16.8059H85.5775V17.7339C85.4282 17.7979 85.2628 17.8512 85.0815 17.8939C84.9002 17.9472 84.6922 17.9739 84.4575 17.9739C84.1802 17.9739 83.9508 17.9152 83.7695 17.7979C83.5882 17.6912 83.4495 17.5419 83.3535 17.3499C83.2575 17.1472 83.1935 16.9232 83.1615 16.6779H83.0495C82.8575 16.9445 82.6122 17.1792 82.3135 17.3819C82.0255 17.5739 81.7002 17.7232 81.3375 17.8299C80.9748 17.9365 80.5802 17.9899 80.1535 17.9899ZM80.5055 16.8059C80.8468 16.8059 81.1668 16.7525 81.4655 16.6459C81.7748 16.5392 82.0468 16.3899 82.2815 16.1979C82.5162 15.9952 82.7028 15.7552 82.8415 15.4779C82.9802 15.2005 83.0495 14.8965 83.0495 14.5659V13.8619C82.1855 13.8619 81.4495 13.9099 80.8415 14.0059C80.2335 14.1019 79.7642 14.2725 79.4335 14.5179C79.1135 14.7632 78.9535 15.1099 78.9535 15.5579C78.9535 15.8459 79.0175 16.0805 79.1455 16.2619C79.2735 16.4432 79.4548 16.5819 79.6895 16.6779C79.9242 16.7632 80.1962 16.8059 80.5055 16.8059ZM86.7603 17.7979V9.38185H87.8963L88.0243 10.7739H88.1363C88.2216 10.5072 88.3389 10.2565 88.4883 10.0219C88.6376 9.77652 88.8403 9.57918 89.0963 9.42985C89.3523 9.26985 89.6669 9.18985 90.0403 9.18985C90.2003 9.18985 90.3443 9.20585 90.4723 9.23785C90.6109 9.25918 90.7123 9.28585 90.7763 9.31785V10.6139H90.2483C89.8856 10.6139 89.5709 10.6779 89.3043 10.8059C89.0483 10.9232 88.8349 11.0939 88.6643 11.3179C88.4936 11.5419 88.3656 11.8085 88.2803 12.1179C88.2056 12.4272 88.1683 12.7579 88.1683 13.1099V17.7979H86.7603ZM94.0408 17.9899C93.6034 17.9899 93.2621 17.9099 93.0168 17.7499C92.7714 17.5792 92.5954 17.3605 92.4888 17.0939C92.3821 16.8165 92.3288 16.5232 92.3288 16.2139V10.5659H91.2408V9.38185H92.3608L92.6168 7.02985H93.7368V9.38185H95.3208V10.5659H93.7368V16.0059C93.7368 16.2725 93.7848 16.4752 93.8808 16.6139C93.9768 16.7419 94.1581 16.8059 94.4248 16.8059H95.3208V17.7339C95.2141 17.7872 95.0861 17.8299 94.9368 17.8619C94.7874 17.8939 94.6328 17.9205 94.4728 17.9419C94.3234 17.9739 94.1794 17.9899 94.0408 17.9899ZM98.9348 17.9899C98.6254 17.9899 98.3161 17.9525 98.0068 17.8779C97.6974 17.8032 97.4094 17.6805 97.1428 17.5099C96.8761 17.3392 96.6628 17.1045 96.5028 16.8059C96.3428 16.4965 96.2628 16.1125 96.2628 15.6539C96.2628 15.0779 96.4014 14.6032 96.6788 14.2299C96.9561 13.8565 97.3401 13.5685 97.8307 13.3659C98.3321 13.1525 98.9241 13.0085 99.6068 12.9339C100.289 12.8485 101.031 12.8059 101.831 12.8059V11.8459C101.831 11.5365 101.777 11.2699 101.671 11.0459C101.564 10.8219 101.372 10.6512 101.095 10.5339C100.828 10.4059 100.444 10.3419 99.9427 10.3419C99.4628 10.3419 99.0788 10.4059 98.7908 10.5339C98.5134 10.6512 98.3161 10.8059 98.1988 10.9979C98.0921 11.1899 98.0388 11.4032 98.0388 11.6379V11.8779H96.6788C96.6681 11.8245 96.6628 11.7712 96.6628 11.7179C96.6628 11.6645 96.6628 11.6005 96.6628 11.5259C96.6628 11.0139 96.8014 10.5872 97.0788 10.2459C97.3668 9.89385 97.7668 9.63252 98.2788 9.46185C98.7908 9.28052 99.3774 9.18985 100.039 9.18985C100.743 9.18985 101.329 9.29118 101.799 9.49385C102.279 9.69652 102.636 9.98452 102.871 10.3579C103.116 10.7312 103.239 11.1792 103.239 11.7019V16.2619C103.239 16.4645 103.287 16.6085 103.383 16.6939C103.479 16.7685 103.596 16.8059 103.735 16.8059H104.359V17.7339C104.209 17.7979 104.044 17.8512 103.863 17.8939C103.681 17.9472 103.473 17.9739 103.239 17.9739C102.961 17.9739 102.732 17.9152 102.551 17.7979C102.369 17.6912 102.231 17.5419 102.135 17.3499C102.039 17.1472 101.975 16.9232 101.943 16.6779H101.831C101.639 16.9445 101.393 17.1792 101.095 17.3819C100.807 17.5739 100.481 17.7232 100.119 17.8299C99.7561 17.9365 99.3614 17.9899 98.9348 17.9899ZM99.2868 16.8059C99.6281 16.8059 99.9481 16.7525 100.247 16.6459C100.556 16.5392 100.828 16.3899 101.063 16.1979C101.297 15.9952 101.484 15.7552 101.623 15.4779C101.761 15.2005 101.831 14.8965 101.831 14.5659V13.8619C100.967 13.8619 100.231 13.9099 99.6228 14.0059C99.0148 14.1019 98.5454 14.2725 98.2148 14.5179C97.8948 14.7632 97.7348 15.1099 97.7348 15.5579C97.7348 15.8459 97.7988 16.0805 97.9268 16.2619C98.0548 16.4432 98.2361 16.5819 98.4708 16.6779C98.7054 16.7632 98.9774 16.8059 99.2868 16.8059ZM97.4308 7.84585C97.4414 7.55785 97.4948 7.29652 97.5908 7.06185C97.6868 6.81652 97.8361 6.62452 98.0388 6.48585C98.2414 6.34718 98.5028 6.27785 98.8228 6.27785C99.1001 6.27785 99.3614 6.32052 99.6068 6.40585C99.8628 6.49118 100.113 6.58185 100.359 6.67785C100.604 6.77385 100.844 6.82185 101.079 6.82185C101.249 6.82185 101.372 6.77385 101.447 6.67785C101.532 6.58185 101.585 6.44852 101.607 6.27785H102.519C102.508 6.56585 102.449 6.82718 102.343 7.06185C102.247 7.29652 102.097 7.48852 101.895 7.63785C101.703 7.77652 101.447 7.84585 101.127 7.84585C100.86 7.84585 100.599 7.80318 100.343 7.71785C100.087 7.62185 99.8361 7.53118 99.5908 7.44585C99.3561 7.34985 99.1161 7.30185 98.8708 7.30185C98.7108 7.30185 98.5881 7.34985 98.5028 7.44585C98.4174 7.54185 98.3641 7.67518 98.3428 7.84585H97.4308ZM108.998 17.9899C108.144 17.9899 107.424 17.8352 106.838 17.5259C106.262 17.2059 105.819 16.7205 105.51 16.0699C105.211 15.4192 105.062 14.5925 105.062 13.5899C105.062 12.5765 105.211 11.7499 105.51 11.1099C105.819 10.4592 106.262 9.97918 106.838 9.66985C107.424 9.34985 108.144 9.18985 108.998 9.18985C109.851 9.18985 110.566 9.34985 111.142 9.66985C111.728 9.97918 112.171 10.4592 112.47 11.1099C112.768 11.7499 112.918 12.5765 112.918 13.5899C112.918 14.5925 112.768 15.4192 112.47 16.0699C112.171 16.7205 111.728 17.2059 111.142 17.5259C110.566 17.8352 109.851 17.9899 108.998 17.9899ZM108.998 16.8059C109.542 16.8059 109.995 16.6992 110.358 16.4859C110.72 16.2725 110.992 15.9419 111.174 15.4939C111.366 15.0352 111.462 14.4592 111.462 13.7659V13.4139C111.462 12.7099 111.366 12.1339 111.174 11.6859C110.992 11.2379 110.72 10.9072 110.358 10.6939C109.995 10.4805 109.542 10.3739 108.998 10.3739C108.454 10.3739 107.995 10.4805 107.622 10.6939C107.259 10.9072 106.987 11.2379 106.806 11.6859C106.624 12.1339 106.534 12.7099 106.534 13.4139V13.7659C106.534 14.4592 106.624 15.0352 106.806 15.4939C106.987 15.9419 107.259 16.2725 107.622 16.4859C107.995 16.6992 108.454 16.8059 108.998 16.8059ZM120.874 17.9899C120.181 17.9899 119.584 17.8352 119.082 17.5259C118.592 17.2165 118.208 16.7365 117.93 16.0859C117.664 15.4245 117.53 14.5712 117.53 13.5259C117.53 12.5339 117.669 11.7179 117.946 11.0779C118.224 10.4379 118.608 9.96318 119.098 9.65385C119.589 9.34452 120.16 9.18985 120.81 9.18985C121.184 9.18985 121.53 9.23252 121.85 9.31785C122.17 9.40318 122.453 9.53652 122.698 9.71785C122.954 9.89918 123.178 10.1392 123.37 10.4379H123.466V6.22985H124.874V17.7979H123.738L123.61 16.5979H123.498C123.21 17.0672 122.837 17.4192 122.378 17.6539C121.92 17.8779 121.418 17.9899 120.874 17.9899ZM121.21 16.7579C121.744 16.7579 122.176 16.6405 122.506 16.4059C122.837 16.1712 123.077 15.8299 123.226 15.3819C123.386 14.9339 123.466 14.3792 123.466 13.7179V13.4619C123.466 12.8859 123.408 12.4005 123.29 12.0059C123.173 11.6112 123.013 11.2965 122.81 11.0619C122.608 10.8272 122.373 10.6619 122.106 10.5659C121.84 10.4699 121.557 10.4219 121.258 10.4219C120.736 10.4219 120.309 10.5285 119.978 10.7419C119.648 10.9445 119.402 11.2699 119.242 11.7179C119.082 12.1552 119.002 12.7259 119.002 13.4299V13.7659C119.002 14.4912 119.088 15.0779 119.258 15.5259C119.429 15.9632 119.674 16.2779 119.994 16.4699C120.325 16.6619 120.73 16.7579 121.21 16.7579ZM130.448 17.9899C129.616 17.9899 128.912 17.8352 128.336 17.5259C127.771 17.2059 127.339 16.7205 127.04 16.0699C126.752 15.4192 126.608 14.5925 126.608 13.5899C126.608 12.5765 126.752 11.7499 127.04 11.1099C127.339 10.4592 127.776 9.97918 128.352 9.66985C128.928 9.34985 129.648 9.18985 130.512 9.18985C131.302 9.18985 131.963 9.34452 132.496 9.65385C133.03 9.95252 133.43 10.4059 133.696 11.0139C133.974 11.6112 134.112 12.3632 134.112 13.2699V13.9419H128.064C128.086 14.6139 128.182 15.1685 128.352 15.6059C128.534 16.0325 128.8 16.3472 129.152 16.5499C129.504 16.7419 129.947 16.8379 130.48 16.8379C130.843 16.8379 131.158 16.7952 131.424 16.7099C131.702 16.6139 131.931 16.4805 132.112 16.3099C132.304 16.1392 132.448 15.9365 132.544 15.7019C132.64 15.4672 132.694 15.2112 132.704 14.9339H134.08C134.07 15.3819 133.984 15.7979 133.824 16.1819C133.664 16.5552 133.43 16.8752 133.12 17.1419C132.811 17.4085 132.432 17.6165 131.984 17.7659C131.536 17.9152 131.024 17.9899 130.448 17.9899ZM128.096 12.8859H132.656C132.656 12.4165 132.603 12.0219 132.496 11.7019C132.39 11.3819 132.235 11.1205 132.032 10.9179C131.84 10.7152 131.611 10.5712 131.344 10.4859C131.088 10.3899 130.795 10.3419 130.464 10.3419C129.974 10.3419 129.558 10.4325 129.216 10.6139C128.875 10.7952 128.614 11.0725 128.432 11.4459C128.251 11.8192 128.139 12.2992 128.096 12.8859ZM142.398 17.9899C141.587 17.9899 140.904 17.8352 140.35 17.5259C139.806 17.2059 139.39 16.7205 139.102 16.0699C138.824 15.4085 138.686 14.5819 138.686 13.5899C138.686 12.5979 138.824 11.7765 139.102 11.1259C139.39 10.4752 139.811 9.98985 140.366 9.66985C140.931 9.34985 141.624 9.18985 142.446 9.18985C143.022 9.18985 143.518 9.26452 143.934 9.41385C144.36 9.56318 144.712 9.78185 144.99 10.0699C145.267 10.3579 145.47 10.7045 145.598 11.1099C145.736 11.5152 145.806 11.9792 145.806 12.5019H144.382C144.382 12.0112 144.312 11.6112 144.174 11.3019C144.046 10.9819 143.838 10.7472 143.55 10.5979C143.262 10.4379 142.883 10.3579 142.414 10.3579C141.944 10.3579 141.539 10.4645 141.198 10.6779C140.856 10.8805 140.595 11.2059 140.414 11.6539C140.232 12.1019 140.142 12.6939 140.142 13.4299V13.7659C140.142 14.4592 140.227 15.0352 140.398 15.4939C140.579 15.9525 140.84 16.2885 141.182 16.5019C141.523 16.7152 141.939 16.8219 142.43 16.8219C142.91 16.8219 143.294 16.7365 143.582 16.5659C143.88 16.3952 144.094 16.1499 144.222 15.8299C144.36 15.5099 144.43 15.1259 144.43 14.6779H145.806C145.806 15.1472 145.736 15.5845 145.598 15.9899C145.47 16.3952 145.267 16.7472 144.99 17.0459C144.712 17.3445 144.36 17.5792 143.934 17.7499C143.507 17.9099 142.995 17.9899 142.398 17.9899ZM147.495 17.7979V9.38185H148.631L148.759 10.7739H148.871C148.956 10.5072 149.073 10.2565 149.223 10.0219C149.372 9.77652 149.575 9.57918 149.831 9.42985C150.087 9.26985 150.401 9.18985 150.775 9.18985C150.935 9.18985 151.079 9.20585 151.207 9.23785C151.345 9.25918 151.447 9.28585 151.511 9.31785V10.6139H150.983C150.62 10.6139 150.305 10.6779 150.039 10.8059C149.783 10.9232 149.569 11.0939 149.399 11.3179C149.228 11.5419 149.1 11.8085 149.015 12.1179C148.94 12.4272 148.903 12.7579 148.903 13.1099V17.7979H147.495ZM156.011 17.9899C155.179 17.9899 154.475 17.8352 153.899 17.5259C153.334 17.2059 152.902 16.7205 152.603 16.0699C152.315 15.4192 152.171 14.5925 152.171 13.5899C152.171 12.5765 152.315 11.7499 152.603 11.1099C152.902 10.4592 153.339 9.97918 153.915 9.66985C154.491 9.34985 155.211 9.18985 156.075 9.18985C156.864 9.18985 157.526 9.34452 158.059 9.65385C158.592 9.95252 158.992 10.4059 159.259 11.0139C159.536 11.6112 159.675 12.3632 159.675 13.2699V13.9419H153.627C153.648 14.6139 153.744 15.1685 153.915 15.6059C154.096 16.0325 154.363 16.3472 154.715 16.5499C155.067 16.7419 155.51 16.8379 156.043 16.8379C156.406 16.8379 156.72 16.7952 156.987 16.7099C157.264 16.6139 157.494 16.4805 157.675 16.3099C157.867 16.1392 158.011 15.9365 158.107 15.7019C158.203 15.4672 158.256 15.2112 158.267 14.9339H159.643C159.632 15.3819 159.547 15.7979 159.387 16.1819C159.227 16.5552 158.992 16.8752 158.683 17.1419C158.374 17.4085 157.995 17.6165 157.547 17.7659C157.099 17.9152 156.587 17.9899 156.011 17.9899ZM153.659 12.8859H158.219C158.219 12.4165 158.166 12.0219 158.059 11.7019C157.952 11.3819 157.798 11.1205 157.595 10.9179C157.403 10.7152 157.174 10.5712 156.907 10.4859C156.651 10.3899 156.358 10.3419 156.027 10.3419C155.536 10.3419 155.12 10.4325 154.779 10.6139C154.438 10.7952 154.176 11.0725 153.995 11.4459C153.814 11.8192 153.702 12.2992 153.659 12.8859ZM155.195 8.34185L156.571 6.22985H158.171L158.187 6.27785L156.411 8.34185H155.195ZM164.281 17.9899C163.587 17.9899 162.99 17.8352 162.489 17.5259C161.998 17.2165 161.614 16.7365 161.337 16.0859C161.07 15.4245 160.937 14.5712 160.937 13.5259C160.937 12.5339 161.075 11.7179 161.353 11.0779C161.63 10.4379 162.014 9.96318 162.505 9.65385C162.995 9.34452 163.566 9.18985 164.217 9.18985C164.59 9.18985 164.937 9.23252 165.257 9.31785C165.577 9.40318 165.859 9.53652 166.105 9.71785C166.361 9.89918 166.585 10.1392 166.777 10.4379H166.873V6.22985H168.281V17.7979H167.145L167.017 16.5979H166.905C166.617 17.0672 166.243 17.4192 165.785 17.6539C165.326 17.8779 164.825 17.9899 164.281 17.9899ZM164.617 16.7579C165.15 16.7579 165.582 16.6405 165.913 16.4059C166.243 16.1712 166.483 15.8299 166.633 15.3819C166.793 14.9339 166.873 14.3792 166.873 13.7179V13.4619C166.873 12.8859 166.814 12.4005 166.697 12.0059C166.579 11.6112 166.419 11.2965 166.217 11.0619C166.014 10.8272 165.779 10.6619 165.513 10.5659C165.246 10.4699 164.963 10.4219 164.665 10.4219C164.142 10.4219 163.715 10.5285 163.385 10.7419C163.054 10.9445 162.809 11.2699 162.649 11.7179C162.489 12.1552 162.409 12.7259 162.409 13.4299V13.7659C162.409 14.4912 162.494 15.0779 162.664 15.5259C162.835 15.9632 163.081 16.2779 163.401 16.4699C163.731 16.6619 164.137 16.7579 164.617 16.7579ZM170.495 7.79785V6.22985H171.903V7.79785H170.495ZM170.495 17.7979V9.38185H171.903V17.7979H170.495ZM176.056 17.9899C175.619 17.9899 175.278 17.9099 175.032 17.7499C174.787 17.5792 174.611 17.3605 174.504 17.0939C174.398 16.8165 174.344 16.5232 174.344 16.2139V10.5659H173.256V9.38185H174.376L174.632 7.02985H175.752V9.38185H177.336V10.5659H175.752V16.0059C175.752 16.2725 175.8 16.4752 175.896 16.6139C175.992 16.7419 176.174 16.8059 176.44 16.8059H177.336V17.7339C177.23 17.7872 177.102 17.8299 176.952 17.8619C176.803 17.8939 176.648 17.9205 176.488 17.9419C176.339 17.9739 176.195 17.9899 176.056 17.9899ZM182.294 17.9899C181.441 17.9899 180.721 17.8352 180.134 17.5259C179.558 17.2059 179.116 16.7205 178.806 16.0699C178.508 15.4192 178.358 14.5925 178.358 13.5899C178.358 12.5765 178.508 11.7499 178.806 11.1099C179.116 10.4592 179.558 9.97918 180.134 9.66985C180.721 9.34985 181.441 9.18985 182.294 9.18985C183.148 9.18985 183.862 9.34985 184.438 9.66985C185.025 9.97918 185.468 10.4592 185.766 11.1099C186.065 11.7499 186.214 12.5765 186.214 13.5899C186.214 14.5925 186.065 15.4192 185.766 16.0699C185.468 16.7205 185.025 17.2059 184.438 17.5259C183.862 17.8352 183.148 17.9899 182.294 17.9899ZM182.294 16.8059C182.838 16.8059 183.292 16.6992 183.654 16.4859C184.017 16.2725 184.289 15.9419 184.47 15.4939C184.662 15.0352 184.758 14.4592 184.758 13.7659V13.4139C184.758 12.7099 184.662 12.1339 184.47 11.6859C184.289 11.2379 184.017 10.9072 183.654 10.6939C183.292 10.4805 182.838 10.3739 182.294 10.3739C181.75 10.3739 181.292 10.4805 180.918 10.6939C180.556 10.9072 180.284 11.2379 180.102 11.6859C179.921 12.1339 179.83 12.7099 179.83 13.4139V13.7659C179.83 14.4592 179.921 15.0352 180.102 15.4939C180.284 15.9419 180.556 16.2725 180.918 16.4859C181.292 16.6992 181.75 16.8059 182.294 16.8059Z" fill="#B4B4B4"/>
</svg>
