<svg width="33" height="33" viewBox="0 0 33 33" fill="none" xmlns="http://www.w3.org/2000/svg">
<rect width="33" height="33" rx="5" fill="black"/>
<g clip-path="url(#clip0_74_8)">
<path d="M10.3125 15.4376C10.3898 15.4951 10.4459 15.5621 10.5062 15.6376C10.5522 15.6948 10.6005 15.7499 10.6487 15.8048C10.7191 15.8853 10.7875 15.9673 10.855 16.0501C11.007 16.236 11.1644 16.4173 11.3362 16.5845C11.3673 16.6163 11.3964 16.6485 11.4253 16.6824C11.4959 16.7638 11.5728 16.8387 11.6503 16.9153C11.7366 17.0004 11.8222 17.0856 11.9003 17.1778C11.9317 17.214 11.9648 17.2481 11.9989 17.2818C12.0106 17.2936 12.0223 17.3053 12.0344 17.3174C12.0625 17.3462 12.0625 17.3462 12.0956 17.361V17.3923C12.1046 17.3961 12.1136 17.4 12.1228 17.4039C12.1636 17.4266 12.1903 17.4533 12.2225 17.4871C12.2639 17.5316 12.2639 17.5316 12.3144 17.5643V17.5955C12.3267 17.6003 12.3267 17.6003 12.3392 17.6052C12.3934 17.6361 12.4345 17.6783 12.4794 17.7215C12.5594 17.7971 12.6419 17.8686 12.7278 17.9371C12.7689 17.9707 12.8081 18.0057 12.8472 18.0415C12.9223 18.1097 13.0006 18.1732 13.08 18.2352C13.0961 18.2479 13.112 18.2605 13.1286 18.2735C13.1748 18.3099 13.2211 18.3463 13.2675 18.3826C13.2892 18.3996 13.3109 18.4166 13.3325 18.4336C13.4761 18.5466 13.62 18.6571 13.77 18.7618C13.8006 18.7833 13.8311 18.8051 13.8616 18.8269C14.003 18.928 14.1459 19.0238 14.2928 19.1176C14.3317 19.1424 14.3705 19.1674 14.4092 19.1926C14.717 19.391 15.0326 19.5722 15.3545 19.7457C15.3873 19.7633 15.42 19.7811 15.4526 19.7991C15.9355 20.0632 16.448 20.2851 16.9683 20.4679C17.0097 20.4826 17.0506 20.4979 17.0914 20.5138C17.5117 20.6779 17.9539 20.7888 18.3914 20.8919L18.443 20.9043C18.707 20.9671 18.9742 21.0115 19.2414 21.0551C19.2591 21.058 19.2767 21.0609 19.2948 21.0639C19.3453 21.0721 19.3959 21.0803 19.4464 21.0882C19.4617 21.0908 19.477 21.0933 19.4928 21.0959C19.507 21.0981 19.5212 21.1003 19.5359 21.1026C19.5483 21.1045 19.5608 21.1065 19.5734 21.1085C19.6611 21.114 19.7328 21.077 19.8109 21.0404C19.8229 21.0348 19.835 21.0293 19.8473 21.0235C19.8733 21.0115 19.8991 20.9995 19.925 20.9873C19.98 20.9615 20.0351 20.9359 20.0906 20.9103C20.1189 20.8971 20.147 20.884 20.1753 20.8709C20.3031 20.8115 20.4316 20.7529 20.5597 20.6943C20.6017 20.6753 20.6439 20.6562 20.6859 20.6371C20.7016 20.6301 20.7016 20.6301 20.7175 20.6228C20.8408 20.5669 20.9644 20.5105 21.0878 20.4541C21.2753 20.3683 21.4628 20.2822 21.6503 20.1978C21.8175 20.1222 21.9831 20.0463 22.1503 19.9697C22.3378 19.8839 22.5253 19.7978 22.7128 19.7134C22.8367 19.6572 22.9597 19.6008 23.0847 19.5447C23.0968 19.5391 23.1089 19.5336 23.1214 19.5278C23.1797 19.5011 23.238 19.4744 23.2964 19.4477C23.4016 19.3994 23.5073 19.352 23.6136 19.3059C23.7237 19.2581 23.8323 19.2077 23.9417 19.1566C23.9955 19.1314 24.0495 19.1066 24.1026 19.0817C24.1139 19.0766 24.1251 19.0714 24.1367 19.0661C24.1722 19.0498 24.2075 19.0336 24.243 19.0173C24.2617 19.0088 24.2617 19.0088 24.2808 19C24.4776 18.9094 24.6761 18.8188 24.873 18.7297C25.027 18.6597 25.1808 18.5895 25.3355 18.5188C25.3468 18.5136 25.3581 18.5084 25.3697 18.5031C25.4986 18.4442 25.6275 18.3852 25.7556 18.325C25.8039 18.3028 25.8522 18.2805 25.9005 18.2583C25.9124 18.2528 25.9242 18.2473 25.9366 18.2417C26.0712 18.1797 26.2069 18.1183 26.3412 18.0589C26.3597 18.0507 26.3597 18.0507 26.3786 18.0423C26.4394 18.0153 26.5003 17.9886 26.5614 17.9622C26.7001 17.9022 26.7001 17.9022 26.8333 17.8295C27.0708 17.6856 27.3505 17.7244 27.6176 17.7344C27.69 17.7369 27.7625 17.7383 27.8348 17.7399C27.9797 17.743 28.1239 17.747 28.2692 17.7515C28.2444 17.8013 28.1926 17.8111 28.1433 17.8315C28.0484 17.8718 27.9558 17.9149 27.8636 17.9616C27.7473 18.0204 27.6308 18.0774 27.5136 18.1335C27.5029 18.1386 27.4923 18.1438 27.4814 18.1491C27.3489 18.2133 27.2158 18.2757 27.0814 18.3351C27.0005 18.3705 26.922 18.4091 26.8423 18.449C26.558 18.5927 26.2689 18.7271 25.9798 18.8599C25.8925 18.9004 25.8048 18.941 25.7189 18.9821C25.7033 18.9894 25.7033 18.9894 25.6875 18.9969C25.6242 19.0269 25.5614 19.058 25.4984 19.0894C25.3572 19.1605 25.2141 19.2287 25.0719 19.2956C25.0031 19.3281 24.9344 19.3606 24.8656 19.3933C24.8451 19.403 24.8451 19.403 24.8242 19.413C24.7053 19.4694 24.5867 19.5266 24.468 19.5833C24.3023 19.6634 24.1367 19.7411 23.9695 19.8176C23.8766 19.8605 23.7851 19.9047 23.693 19.9508C23.578 20.0087 23.4617 20.0641 23.3445 20.118C23.1617 20.2036 22.9789 20.2898 22.7961 20.3789C22.7868 20.3834 22.7775 20.3879 22.7678 20.3926C22.7223 20.4146 22.6769 20.4366 22.6314 20.4587C22.5395 20.5031 22.447 20.547 22.3548 20.5909C22.2748 20.629 22.1955 20.6674 22.1158 20.706C21.9423 20.7899 21.7689 20.8732 21.5939 20.9513C21.5081 20.9896 21.4236 21.0304 21.3408 21.0731C21.2345 21.1268 21.1267 21.1763 21.0189 21.2262C20.8439 21.3065 20.8439 21.3065 20.672 21.3918C20.4251 21.5171 20.1736 21.634 19.9236 21.7512C19.9051 21.7597 19.8867 21.7684 19.8678 21.7771C19.7692 21.8227 19.7692 21.8227 19.7225 21.844L19.6709 21.8699C19.6005 21.8956 19.5441 21.8962 19.4694 21.894C19.4398 21.8935 19.4103 21.8931 19.3808 21.8927C19.3573 21.8922 19.3573 21.8922 19.3333 21.8917C19.2836 21.8909 19.2341 21.8906 19.1844 21.8905C17.9047 21.8878 16.6219 21.8008 14.1531 21.4452C14.1083 21.4372 14.0633 21.4292 14.0184 21.4214C13.6403 21.3549 13.2637 21.2831 12.8903 21.1933C12.8225 21.1772 12.7545 21.1619 12.6856 21.1472C12.1372 21.0286 11.5919 20.88 11.0606 20.7191C11.0064 20.703 10.9519 20.6872 10.8981 20.6716C10.5887 20.5822 10.2872 20.4763 9.98405 20.37C9.88671 20.3356 9.78874 20.3019 9.69187 20.2686C9.53655 20.2156 9.38405 20.1589 9.23093 20.0967C9.1514 20.0642 9.07155 20.033 8.99187 20.0019C8.62468 19.8591 8.2653 19.7035 7.90593 19.541C7.85405 19.5175 7.80202 19.4941 7.74999 19.4708C7.58593 19.397 7.42499 19.3199 7.26718 19.2349C7.16062 19.1778 7.05312 19.1231 6.9453 19.0677C6.64374 18.913 6.34374 18.7552 6.05468 18.5786C6.0014 18.5461 5.94765 18.5144 5.89374 18.483C5.51405 18.2627 5.51405 18.2627 5.42655 18.0658C5.39749 17.9422 5.4118 17.8439 5.47733 17.7345C5.51343 17.6925 5.51343 17.6925 5.55546 17.6564C5.56604 17.6462 5.56604 17.6462 5.57687 17.6356C5.65905 17.5589 5.75343 17.515 5.85499 17.4685C5.87359 17.4596 5.89218 17.4508 5.9114 17.4417C6.08796 17.3588 6.26452 17.2792 6.44265 17.2011C6.5828 17.1388 6.72234 17.0753 6.86296 17.012C6.87698 17.0057 6.89093 16.9994 6.90546 16.9928C7.08515 16.9117 7.26327 16.8303 7.44296 16.7475C7.68671 16.636 7.93046 16.5272 8.17577 16.4178C8.19187 16.4107 8.19187 16.4107 8.20827 16.4034C8.2528 16.3838 8.29749 16.3639 8.34218 16.3442C8.48374 16.2817 8.62499 16.2183 8.76405 16.152C8.86733 16.1036 8.97187 16.0561 9.07499 16.0086C9.08654 16.0033 9.09812 15.998 9.10999 15.9927C9.3178 15.8975 9.52718 15.8036 9.73655 15.7114C9.84952 15.6616 9.96155 15.6108 10.0741 15.5583C10.0847 15.5533 10.0953 15.5483 10.1062 15.5432C10.1791 15.5086 10.2512 15.473 10.3234 15.4368L10.3125 15.4376Z" fill="url(#paint0_linear_74_8)"/>
<path d="M17.7656 8.48445C17.9515 8.63117 18.0921 8.7907 18.2093 8.99695C18.2178 9.01153 18.2178 9.01153 18.2264 9.02633C18.2843 9.12648 18.3409 9.22633 18.3904 9.33102C18.4826 9.5232 18.5967 9.70289 18.7092 9.88414C18.7348 9.92555 18.7603 9.96711 18.7857 10.0087C18.8681 10.1426 18.956 10.2727 19.0451 10.4009C19.0682 10.4338 19.0912 10.467 19.1142 10.5001C19.201 10.6248 19.2907 10.747 19.386 10.8657C19.4207 10.9091 19.4545 10.9532 19.4879 10.9974C19.5517 11.0816 19.6185 11.1615 19.6895 11.2396C19.724 11.2779 19.756 11.3174 19.7882 11.3577C19.9215 11.5218 20.071 11.6734 20.2226 11.8218C20.2534 11.8532 20.2821 11.8854 20.3104 11.919C20.3626 11.9799 20.421 12.032 20.4807 12.0846C20.5337 12.1324 20.5835 12.1829 20.6332 12.2341C20.6599 12.2626 20.6599 12.2626 20.6928 12.2771V12.3084C20.706 12.3141 20.706 12.3141 20.7195 12.32C20.7614 12.343 20.7917 12.3705 20.8265 12.4031C20.8954 12.4663 20.9664 12.5261 21.039 12.5844C21.0839 12.621 21.1279 12.6581 21.1721 12.6956C21.2849 12.7897 21.4018 12.8769 21.5206 12.9644C21.5374 12.9768 21.5374 12.9768 21.5546 12.9895C21.8406 13.2005 22.1374 13.3911 22.4421 13.5739C22.497 13.6069 22.5515 13.64 22.6062 13.6735C22.8921 13.8485 23.1906 13.9969 23.4906 14.1453C23.524 14.162 23.5573 14.1789 23.5904 14.196C24.9873 14.9116 26.5592 15.2725 28.106 15.4444C28.1301 15.4471 28.1301 15.4471 28.1545 15.4498C28.2354 15.4586 28.317 15.4662 28.3982 15.472C28.4143 15.4732 28.4303 15.4744 28.4468 15.4756C28.4768 15.4778 28.507 15.4797 28.5371 15.4814C28.6532 15.4898 28.7621 15.5173 28.8559 15.5897C28.9389 15.6878 28.9924 15.7819 29.0107 15.91C28.9893 16.0598 28.9203 16.1772 28.7998 16.2694C28.6937 16.3377 28.5748 16.3856 28.4607 16.4366C28.3523 16.4845 28.2451 16.5339 28.1373 16.5833C28.0779 16.6105 28.0184 16.6377 27.9592 16.6648C27.9412 16.673 27.9412 16.673 27.9229 16.6814C27.8015 16.7369 27.6807 16.7922 27.5589 16.847C27.3823 16.9272 27.2057 17.008 27.0292 17.0877C27.0178 17.0928 27.0065 17.098 26.9948 17.1033C26.9145 17.14 26.8339 17.1769 26.7542 17.2136C26.3901 17.3808 26.0245 17.5464 25.6604 17.712C25.5857 17.7459 25.511 17.7798 25.437 17.8138C25.4264 17.8186 25.4157 17.8234 25.4049 17.8283C25.2268 17.9096 25.0471 17.9908 24.869 18.0721C24.7034 18.1479 24.5378 18.2232 24.3721 18.2986C24.1956 18.3788 24.019 18.4596 23.8424 18.5393C23.8311 18.5444 23.8198 18.5496 23.8081 18.5549C23.7278 18.5916 23.6471 18.6285 23.5674 18.6652C23.4757 18.7072 23.3846 18.7493 23.2924 18.7911C23.2811 18.7963 23.2698 18.8015 23.2581 18.8068C23.0831 18.8871 22.9065 18.9677 22.7315 19.0474C22.5643 19.123 22.3987 19.199 22.2315 19.2755C22.0549 19.3565 21.8768 19.438 21.7003 19.5177C21.5237 19.5979 21.3471 19.6786 21.1706 19.7583C21.1537 19.766 21.1537 19.766 21.1365 19.7739C21.032 19.8217 20.9271 19.8695 20.8224 19.9174C20.7982 19.9285 20.7739 19.9395 20.7496 19.9506C20.7377 19.9561 20.7257 19.9616 20.7135 19.9672C20.6217 20.0092 20.5292 20.0511 20.4385 20.093C20.3762 20.1214 20.314 20.1502 20.251 20.1789C19.9448 20.3206 19.7229 20.3524 19.3901 20.2983C19.3772 20.2962 19.3643 20.2942 19.3512 20.292C18.2278 20.1108 17.1324 19.7733 16.1168 19.2717C16.0606 19.2442 16.0042 19.2173 15.9481 19.1903C15.4121 18.9341 15.4121 18.9341 15.1746 18.7825C15.1132 18.7439 15.0509 18.7072 14.9887 18.67C14.9076 18.6217 14.8262 18.5728 14.7465 18.5241C14.7344 18.5168 14.7223 18.5095 14.71 18.502C14.5428 18.4009 14.3834 18.2911 14.224 18.177C14.1839 18.1486 14.1435 18.1206 14.1031 18.0925C13.8781 17.9367 13.6593 17.7769 13.45 17.6019C13.4093 17.5686 13.3685 17.5355 13.3279 17.5022L13.2956 17.4758C13.2359 17.4273 13.1757 17.3797 13.1143 17.3327C13.0042 17.2477 12.9018 17.1561 12.8003 17.0608C12.7229 16.9883 12.644 16.9178 12.5628 16.8483C12.3471 16.6592 12.144 16.4561 11.9425 16.253C11.9018 16.2122 11.8612 16.1716 11.8204 16.1309C11.7885 16.0992 11.7568 16.0673 11.725 16.0355C11.7028 16.0133 11.6806 15.9911 11.6584 15.9691C11.5801 15.8905 11.5051 15.8097 11.4334 15.7253C11.4075 15.6966 11.3814 15.668 11.3553 15.6394C11.3012 15.5802 11.2479 15.5203 11.1959 15.4597C11.165 15.4244 11.1335 15.3898 11.102 15.355C10.98 15.2195 10.8629 15.08 10.752 14.9362C10.7045 14.8753 10.6557 14.8156 10.6064 14.7566C10.4754 14.5987 10.3532 14.4362 10.2314 14.2722C10.2171 14.2528 10.2171 14.2528 10.2025 14.2331C10.1473 14.1586 10.0925 14.0841 10.0384 14.0097C10.0148 13.9777 9.9912 13.9456 9.96745 13.9137C9.80808 13.6981 9.65964 13.4778 9.5112 13.2544C9.50462 13.2445 9.49803 13.2347 9.4912 13.2245C9.26776 12.8902 9.05527 12.5527 8.85683 12.2027C8.79698 12.097 8.73636 11.9917 8.67402 11.8886C8.46152 11.5292 8.2787 11.1808 8.3787 10.7527C8.43042 10.5573 8.53964 10.398 8.68339 10.2558C8.69217 10.247 8.70089 10.2383 8.70995 10.2292C8.9662 9.99328 9.3412 9.93547 9.66776 9.85891C9.72058 9.84637 9.77339 9.83375 9.82558 9.82109C9.92636 9.79703 10.0271 9.77297 10.1271 9.74906C10.2503 9.71984 10.374 9.69047 10.4975 9.66109C10.5084 9.65848 10.5193 9.65586 10.5306 9.65317C10.5968 9.63739 10.5968 9.63739 10.6631 9.62161C10.7185 9.60839 10.7739 9.5952 10.8287 9.58192C11.1131 9.51427 11.3959 9.44598 11.6787 9.37567C12.0178 9.29208 12.3568 9.21005 12.6959 9.1288C12.709 9.12566 12.722 9.12252 12.7354 9.11928C12.8557 9.09037 12.976 9.06147 13.0964 9.03256C13.2807 8.98834 13.4651 8.94412 13.6479 8.89991C13.6606 8.89686 13.6732 8.8938 13.6864 8.89066C13.7376 8.87834 13.7887 8.86597 13.84 8.85362C13.9293 8.83206 14.0181 8.81066 14.1087 8.78909C14.3181 8.73878 14.5259 8.68862 14.7353 8.63831C14.7488 8.63506 14.7623 8.6318 14.7762 8.62844C14.8309 8.61528 14.8856 8.60219 14.9403 8.58906C15.0862 8.55391 15.2325 8.51891 15.3778 8.48375C15.3904 8.48072 15.4029 8.47769 15.4159 8.47458C15.4656 8.46264 15.5153 8.45067 15.565 8.4388C15.7045 8.4052 15.8446 8.37161 15.9837 8.33802C16.0512 8.32161 16.1189 8.30536 16.1868 8.28911C16.2164 8.28197 16.246 8.27481 16.2756 8.26755C16.8037 8.13927 17.3178 8.12864 17.7693 8.47848L17.7656 8.48445ZM16.414 9.10164C16.3821 9.10939 16.3503 9.11711 16.3184 9.12477C16.2334 9.14539 16.1481 9.16633 16.0637 9.18727C15.9751 9.20914 15.8871 9.23055 15.7981 9.25211C15.6739 9.28227 15.5496 9.31258 15.4262 9.34289C15.2418 9.38805 15.0575 9.43273 14.8715 9.4768C14.8601 9.4795 14.8487 9.4822 14.837 9.485C14.7821 9.49805 14.7271 9.51109 14.6729 9.52406C14.337 9.60359 14.0026 9.685 13.6682 9.76781C13.462 9.81891 13.2542 9.86922 13.0464 9.91875C13.0352 9.92141 13.024 9.92408 13.0126 9.92681C12.8931 9.95525 12.7735 9.98369 12.6532 10.0121C12.3985 10.0726 12.1439 10.1343 11.8907 10.1965C11.6251 10.2617 11.3595 10.3262 11.0939 10.3902C11.0775 10.3942 11.0612 10.3981 11.0443 10.4021C10.895 10.4379 10.7459 10.4737 10.5959 10.5093C10.4178 10.5518 10.2396 10.5946 10.0615 10.6376C9.97448 10.6587 9.88651 10.6793 9.80058 10.6998C9.74839 10.7121 9.69605 10.7246 9.64433 10.7371C9.62058 10.7428 9.59683 10.7484 9.57292 10.7538C9.38386 10.7971 9.38386 10.7971 9.22605 10.9042C9.1887 10.9643 9.1862 11.0224 9.1948 11.0917C9.20934 11.1313 9.2237 11.1643 9.24355 11.201C9.24903 11.2115 9.2545 11.222 9.26011 11.2329C9.32917 11.3631 9.40464 11.4892 9.47886 11.6157C9.52823 11.6995 9.57667 11.7829 9.6248 11.8673C9.84355 12.2501 10.0857 12.6188 10.331 12.9845C10.3478 13.0093 10.3646 13.0343 10.3814 13.0593C10.5065 13.2452 10.6376 13.4265 10.772 13.6062C10.7852 13.6238 10.7984 13.6417 10.8115 13.6593C10.9334 13.8234 11.0584 13.9843 11.185 14.1421C11.2306 14.199 11.2759 14.2562 11.3206 14.314C11.4479 14.4781 11.5831 14.6343 11.7221 14.7874C11.7559 14.8257 11.7879 14.8651 11.8198 14.9051C11.8921 14.9948 11.9706 15.0785 12.0495 15.1613C12.0592 15.1715 12.0689 15.1818 12.0789 15.1923C12.0919 15.2059 12.0919 15.2059 12.1051 15.2198C12.1296 15.2471 12.1296 15.2471 12.1543 15.2818C12.1617 15.291 12.169 15.3002 12.1765 15.3096H12.2078C12.2111 15.318 12.2144 15.3265 12.2178 15.3351C12.2469 15.3859 12.2867 15.4237 12.3281 15.4643C12.3369 15.4731 12.3456 15.4818 12.3547 15.4909C12.3828 15.5187 12.4109 15.5465 12.4391 15.5743C12.4578 15.5929 12.4766 15.6115 12.4953 15.6302C12.53 15.6646 12.5647 15.699 12.5994 15.7334C12.6558 15.789 12.7119 15.8451 12.7681 15.9021C12.8469 15.9817 12.9259 16.0599 13.0119 16.1318C13.0372 16.1537 13.0372 16.1537 13.0742 16.1918C13.0975 16.2198 13.0975 16.2198 13.1308 16.2162V16.2474C13.1523 16.2698 13.1523 16.2698 13.1816 16.2934C13.237 16.3404 13.2906 16.3892 13.3441 16.4388C13.4212 16.5106 13.5019 16.5762 13.5847 16.6404C13.6325 16.6774 13.6792 16.7148 13.7242 16.7551C13.7878 16.812 13.8548 16.864 13.9227 16.916C13.9791 16.9599 14.0344 17.0048 14.0883 17.0507C14.1912 17.1356 14.3008 17.2101 14.4102 17.2867C14.4577 17.3199 14.5048 17.3537 14.552 17.3874C14.57 17.4003 14.5881 17.4131 14.6061 17.4259C14.6439 17.4527 14.6812 17.4801 14.7186 17.5076C14.8998 17.6392 15.0889 17.7545 15.2811 17.8685C15.3427 17.9052 15.4039 17.9426 15.4655 17.9801C15.6795 18.1117 15.8998 18.2317 16.1233 18.3442C16.1761 18.371 16.2283 18.3985 16.2811 18.4263C16.528 18.5562 16.7827 18.6638 17.042 18.7685C17.0583 18.775 17.0745 18.7815 17.0912 18.7882C17.4022 18.9117 17.7147 19.032 18.035 19.1304C18.0534 19.1361 18.0719 19.1418 18.0908 19.1476C18.5517 19.2868 19.0236 19.3898 19.4986 19.4726C19.5139 19.4753 19.5294 19.4781 19.5452 19.4809C19.5594 19.4833 19.5737 19.4857 19.5884 19.4882C19.6008 19.4903 19.6131 19.4924 19.6258 19.4945C19.7067 19.4998 19.7719 19.4781 19.8445 19.4436C19.8612 19.4357 19.8781 19.4278 19.8953 19.4197C19.9134 19.411 19.9314 19.4023 19.9502 19.3934C19.9895 19.3748 20.0291 19.3562 20.0684 19.3377C20.0787 19.3328 20.0889 19.328 20.0995 19.323C20.2175 19.2675 20.3355 19.2138 20.4542 19.1605C20.6075 19.0911 20.7605 19.0213 20.9136 18.9511C21.0745 18.8764 21.237 18.8027 21.398 18.7292C21.5558 18.6577 21.7136 18.5858 21.8714 18.5136C22.0589 18.4281 22.2448 18.3433 22.4323 18.2574C22.4427 18.2526 22.4531 18.2479 22.4637 18.243C22.5923 18.1846 22.7216 18.1265 22.8497 18.068C22.9033 18.044 22.9567 18.0199 23.0106 17.996C23.0239 17.9901 23.037 17.9841 23.0508 17.978C23.2352 17.8955 23.418 17.8109 23.5992 17.7249C23.7408 17.6584 23.8836 17.5946 24.0273 17.5327C24.1469 17.4813 24.2648 17.4273 24.382 17.3718C24.5398 17.2965 24.6977 17.2221 24.857 17.1515C24.9423 17.1134 25.0273 17.0746 25.1133 17.0357C25.1242 17.0307 25.135 17.0257 25.1462 17.0206C25.1691 17.0101 25.1917 16.9996 25.2145 16.9893C25.427 16.8915 25.6411 16.7956 25.8552 16.7002C26.0427 16.6173 26.2286 16.5315 26.4145 16.4424C26.5942 16.357 26.7755 16.2752 26.9598 16.2002V16.1534C26.8183 16.1162 26.677 16.0831 26.5333 16.0532C25.9583 15.9331 25.3942 15.7907 24.8302 15.6017C24.7952 15.5898 24.7602 15.5781 24.7253 15.5665C24.2737 15.4149 23.8316 15.2415 23.4003 15.0384C23.3458 15.0127 23.2911 14.9877 23.2362 14.9629C22.8222 14.7738 22.4206 14.5629 22.0331 14.3223C21.9823 14.291 21.9314 14.2602 21.8803 14.2296C21.6912 14.1154 21.51 13.9968 21.3319 13.8656C21.2678 13.8187 21.2022 13.7738 21.1366 13.7287C20.9631 13.6081 20.7991 13.4787 20.6381 13.3412C20.5775 13.2895 20.5153 13.2404 20.4522 13.1918C20.3512 13.1137 20.2584 13.0293 20.1647 12.9418C20.1295 12.9087 20.0939 12.876 20.0583 12.8434C19.9878 12.7788 19.9184 12.7134 19.852 12.6449C19.8252 12.6187 19.7972 12.5943 19.7686 12.5698C19.6347 12.4542 19.4983 12.3245 19.3967 12.1792C19.3893 12.17 19.3819 12.1609 19.3742 12.1513H19.343C19.3389 12.1422 19.3349 12.1331 19.3308 12.1235C19.31 12.0856 19.2875 12.0626 19.256 12.0331C19.1932 11.9718 19.1385 11.9065 19.0841 11.8377C19.0518 11.7977 19.0185 11.7585 18.9849 11.7196C18.9052 11.6271 18.8308 11.5321 18.7583 11.4337C18.6971 11.351 18.6335 11.2712 18.5677 11.1915C18.4966 11.1045 18.4363 11.0102 18.3739 10.9165C18.3516 10.8831 18.3293 10.8498 18.3068 10.8163C18.1099 10.5226 17.9208 10.2304 17.7536 9.91947C17.6716 9.76603 17.5865 9.61478 17.499 9.46478C17.4923 9.45328 17.4857 9.44181 17.4789 9.42994C17.3671 9.23775 17.2321 9.11119 17.0211 9.03931C16.8102 8.99478 16.6118 9.05006 16.4071 9.10087L16.414 9.10164Z" fill="white"/>
<path d="M26.7657 19.6093C26.828 19.6106 26.8904 19.6107 26.9532 19.611C27.0704 19.6116 27.1876 19.6133 27.3047 19.6153C27.4385 19.6176 27.5719 19.6187 27.7063 19.6197C27.9813 19.6218 28.2547 19.6254 28.5297 19.6299C28.4963 19.6634 28.4735 19.6737 28.4302 19.6913C28.408 19.7005 28.408 19.7005 28.3855 19.7099C28.3607 19.7201 28.3607 19.7201 28.3354 19.7306C28.1463 19.8095 27.9588 19.8915 27.7713 19.9743C27.7133 19.9999 27.6554 20.0257 27.5979 20.0513C27.5833 20.0578 27.5688 20.0642 27.5538 20.0709C27.4515 20.1162 27.3491 20.1613 27.246 20.2062C27.2247 20.2155 27.2247 20.2155 27.203 20.2251C27.1483 20.249 27.0938 20.2731 27.039 20.297C26.8846 20.3645 26.7311 20.4328 26.5765 20.5017C26.4779 20.5463 26.378 20.5885 26.278 20.6298C26.1952 20.6638 26.114 20.7015 26.0327 20.7396C25.8977 20.8029 25.7608 20.8626 25.6249 20.9224C25.5952 20.9355 25.5657 20.9485 25.536 20.9617C25.2188 21.1017 24.9016 21.2413 24.5829 21.3804C24.1579 21.5663 23.7344 21.7538 23.3094 21.9413C23.1968 21.9912 23.0844 22.041 22.9719 22.0907C22.9581 22.0968 22.9443 22.103 22.9299 22.1093C22.6955 22.2126 22.4627 22.3156 22.2283 22.4187C22.0627 22.4913 21.8971 22.5642 21.7315 22.6374C21.5346 22.7242 21.3377 22.8109 21.1408 22.8968C21.1273 22.9028 21.1138 22.9087 21.0997 22.9148C20.9122 22.9973 20.7232 23.0788 20.5357 23.1601C20.4361 23.2031 20.3372 23.2463 20.2388 23.2929C20.1618 23.3292 20.0844 23.3643 20.006 23.3982C19.9956 23.4027 19.9852 23.4073 19.9744 23.4119C19.9421 23.426 19.9096 23.4401 19.8772 23.4541C19.8615 23.461 19.8615 23.461 19.8454 23.4679C19.7811 23.4957 19.7169 23.5235 19.6532 23.5509C19.6416 23.5564 19.6299 23.5619 19.6179 23.5676C19.5652 23.5856 19.5215 23.586 19.4658 23.586C19.455 23.5861 19.4441 23.5861 19.4329 23.5862C19.3963 23.5862 19.3597 23.5861 19.323 23.586C19.2965 23.586 19.2699 23.5861 19.2433 23.5861C19.1701 23.5862 19.0966 23.5861 19.023 23.586C18.9433 23.5859 18.8636 23.5859 18.784 23.586C18.6443 23.5861 18.5043 23.586 18.3652 23.5859C18.1574 23.5857 17.9496 23.5857 17.7418 23.5857C17.3918 23.5857 17.0433 23.5856 16.6933 23.5855C16.3465 23.5853 16.0011 23.5852 15.6543 23.5851C15.6435 23.5851 15.6327 23.5851 15.6218 23.5851C15.5236 23.5851 15.4249 23.5851 15.328 23.5851C15.0843 23.5851 14.8405 23.585 14.5968 23.585C14.5857 23.585 14.5746 23.585 14.563 23.585C14.0224 23.5849 13.4818 23.5847 12.938 23.5845C12.7505 23.5844 12.563 23.5844 12.3755 23.5843C12.358 23.5843 12.358 23.5843 12.3402 23.5843C11.7996 23.5841 11.259 23.584 10.7152 23.5839C10.6801 23.5839 10.6451 23.5839 10.6099 23.5839C10.3771 23.5838 10.1443 23.5838 9.91146 23.5837C9.44896 23.5837 8.9849 23.5836 8.5224 23.5835C8.50036 23.5835 8.47833 23.5835 8.4563 23.5835C7.10942 23.5832 5.7688 23.5828 4.05005 23.5822C4.08708 23.5451 4.11771 23.5342 4.16661 23.5151C4.18458 23.508 4.20271 23.5008 4.2213 23.4936C4.23107 23.4897 4.24083 23.4859 4.25083 23.482C4.30443 23.461 4.35786 23.4398 4.41177 23.4185C4.4288 23.4118 4.4288 23.4118 4.44614 23.4049C4.55927 23.3601 4.67271 23.3143 4.78521 23.2684C5.04771 23.1617 5.31021 23.0559 5.57271 22.9512C5.79146 22.8637 6.01021 22.7746 6.22896 22.684C6.38833 22.6179 6.54927 22.5537 6.71021 22.4902C6.85192 22.4349 6.99302 22.3781 7.13364 22.3215C7.39771 22.214 7.66333 22.1074 7.92739 21.9996C7.93777 21.9954 7.94818 21.9913 7.9588 21.9869C8.2713 21.8607 8.58536 21.7354 8.89786 21.6104C9.11349 21.5241 9.32911 21.4369 9.54474 21.3494C9.55832 21.3439 9.57193 21.3384 9.58583 21.3327C9.6163 21.32 9.6463 21.3066 9.6763 21.2929C9.69255 21.2856 9.7088 21.2782 9.72568 21.2707C9.74024 21.2639 9.75474 21.2571 9.76974 21.2501C9.86427 21.223 9.95568 21.2596 10.0447 21.2891C10.0562 21.2928 10.0677 21.2965 10.0796 21.3003C10.1043 21.3082 10.1291 21.3162 10.1538 21.3242C10.2207 21.3457 10.2877 21.367 10.3554 21.3884C10.3691 21.3928 10.3829 21.3971 10.3969 21.4016C11.3047 21.6907 12.2251 21.9329 13.1626 22.1282C13.1771 22.1312 13.1916 22.1343 13.2066 22.1374C14.0707 22.3171 14.941 22.4499 15.816 22.5499C15.8322 22.5518 15.8486 22.5536 15.8654 22.5556C16.3638 22.6123 16.8622 22.6517 17.3638 22.6834C17.4363 22.688 17.5088 22.6931 17.581 22.6985C17.9544 22.7254 18.3279 22.7322 18.7029 22.7391C18.7968 22.7409 18.8904 22.7429 18.9841 22.7449C19.0572 22.7465 19.1305 22.7479 19.2044 22.7492C19.2391 22.7499 19.2738 22.7506 19.3085 22.7514C19.3568 22.7525 19.4049 22.7533 19.4532 22.7541C19.4672 22.7545 19.4811 22.7548 19.4955 22.7552C19.6374 22.7571 19.7627 22.7324 19.8893 22.6677C19.9 22.6624 19.9107 22.6571 19.9218 22.6516C19.9446 22.6403 19.9674 22.6289 19.9902 22.6174C20.0511 22.5866 20.1126 22.5566 20.173 22.5263C20.1915 22.5172 20.1915 22.5172 20.2102 22.5079C20.3163 22.4555 20.4227 22.4055 20.5305 22.3563C20.7211 22.2688 20.9086 22.1766 21.0977 22.0844C21.2758 21.9972 21.454 21.9125 21.6352 21.8297C21.7877 21.7594 21.9383 21.686 22.0899 21.6125C22.2586 21.5297 22.429 21.4485 22.5993 21.3688C22.7649 21.2924 22.9305 21.2135 23.0946 21.1329C23.1063 21.1271 23.118 21.1214 23.1302 21.1155C23.1763 21.093 23.2224 21.0707 23.2683 21.0482C23.4886 20.9408 23.7105 20.8357 23.9324 20.7341C24.0504 20.6799 24.1683 20.6249 24.284 20.5669C24.5136 20.4505 24.748 20.3419 24.9824 20.2341C25.0997 20.1802 25.2168 20.1255 25.3308 20.0669C25.439 20.0122 25.548 19.9591 25.6574 19.9075C25.7443 19.8668 25.8293 19.8246 25.9136 19.778C26.198 19.6254 26.4371 19.5999 26.7558 19.6077L26.7657 19.6093Z" fill="url(#paint1_linear_74_8)"/>
<path d="M3.99996 23.9219C5.43434 23.9217 6.87496 23.9214 8.43746 23.9213C8.45949 23.9213 8.48168 23.9213 8.50371 23.9213C8.96777 23.9212 9.43184 23.9212 9.89434 23.9211C10.1271 23.9211 10.36 23.9211 10.5928 23.9211C10.6279 23.9211 10.6631 23.9211 10.6982 23.9211C11.2389 23.921 11.7811 23.921 12.3232 23.9209C12.3407 23.9209 12.3407 23.9209 12.3586 23.9209C12.5461 23.9208 12.7336 23.9208 12.9211 23.9208C13.4617 23.9206 14.0023 23.9206 14.5461 23.9205C14.5572 23.9205 14.5682 23.9205 14.5796 23.9205C14.8234 23.9205 15.0672 23.9205 15.3109 23.9205C15.409 23.9205 15.5078 23.9205 15.6046 23.9205C15.6154 23.9205 15.6261 23.9205 15.6372 23.9205C15.984 23.9204 16.3293 23.9204 16.6762 23.9203C17.034 23.9202 17.3934 23.9201 17.7512 23.9202C17.9575 23.9202 18.1653 23.9201 18.3715 23.92C18.5093 23.92 18.6465 23.92 18.7856 23.92C18.8643 23.9201 18.9434 23.9201 19.0215 23.92C19.0929 23.9199 19.1645 23.9199 19.2356 23.92C19.2614 23.92 19.2873 23.92 19.3131 23.9199C19.3479 23.9199 19.3826 23.9199 19.4175 23.92C19.4465 23.92 19.4465 23.92 19.4761 23.92C19.5189 23.9219 19.5189 23.9219 19.5345 23.9375C19.536 23.9642 19.5365 23.9911 19.5365 24.018C19.5366 24.0437 19.5366 24.0437 19.5367 24.07C19.5366 24.0886 19.5366 24.1073 19.5366 24.1266C19.5366 24.1456 19.5366 24.1645 19.5366 24.1842C19.5366 24.2245 19.5366 24.2648 19.5365 24.3051C19.5364 24.367 19.5365 24.4291 19.5366 24.4911C19.5366 24.5301 19.5366 24.5692 19.5366 24.6083C19.5366 24.6269 19.5366 24.6456 19.5367 24.6648C19.5366 24.682 19.5366 24.6992 19.5365 24.7169C19.5365 24.7397 19.5365 24.7397 19.5365 24.7628C19.5345 24.7972 19.5345 24.7972 19.5188 24.8128C19.4851 24.8143 19.4512 24.8147 19.4174 24.8147C19.4066 24.8148 19.3958 24.8148 19.3848 24.8148C19.348 24.8148 19.3113 24.8148 19.2746 24.8147C19.2482 24.8147 19.2216 24.8148 19.1952 24.8148C19.1218 24.8148 19.0483 24.8148 18.9749 24.8147C18.8952 24.8147 18.8155 24.8147 18.7358 24.8147C18.596 24.8148 18.4562 24.8147 18.3171 24.8147C18.1093 24.8146 17.9015 24.8146 17.6937 24.8146C17.3437 24.8146 16.9937 24.8145 16.6452 24.8145C16.2983 24.8144 15.953 24.8143 15.6062 24.8143C15.5954 24.8143 15.5846 24.8143 15.5737 24.8143C15.4755 24.8143 15.3768 24.8143 15.2799 24.8143C15.0362 24.8143 14.7924 24.8142 14.5471 24.8142C14.536 24.8142 14.5249 24.8142 14.5133 24.8142C13.9727 24.8142 13.4321 24.8141 12.8883 24.814C12.7008 24.8139 12.5133 24.8139 12.3243 24.8139C12.3126 24.8139 12.301 24.8139 12.289 24.8139C11.7483 24.8138 11.2062 24.8137 10.664 24.8137C10.6288 24.8137 10.5937 24.8137 10.5587 24.8137C10.3258 24.8136 10.093 24.8136 9.86022 24.8136C9.39772 24.8136 8.93366 24.8135 8.47116 24.8135C8.44913 24.8135 8.4271 24.8135 8.40491 24.8135C7.0596 24.8133 5.71741 24.8131 3.99866 24.8128V23.9222L3.99996 23.9219Z" fill="url(#paint2_linear_74_8)"/>
<path d="M28.5625 19.9375V20.8281C28.3516 20.9338 28.3516 20.9337 28.2625 20.9741C28.2528 20.9785 28.243 20.9829 28.233 20.9875C28.2016 21.0018 28.17 21.0161 28.1386 21.0303C28.1222 21.0378 28.1222 21.0378 28.1054 21.0454C27.9085 21.1349 27.71 21.2235 27.5116 21.3095C27.3816 21.3663 27.2522 21.4252 27.1241 21.486C27.0247 21.5326 26.9257 21.5784 26.8257 21.6243C26.8133 21.63 26.801 21.6356 26.7883 21.6415C26.5883 21.733 26.3883 21.8227 26.1883 21.9118C26.0258 21.9837 25.8633 22.057 25.7024 22.1321C25.5552 22.2004 25.4071 22.266 25.2586 22.3321C25.1024 22.4015 24.9461 22.4709 24.7915 22.5446C24.7088 22.5843 24.6258 22.6224 24.5415 22.6599C24.5211 22.669 24.5211 22.669 24.5004 22.6784C24.4722 22.691 24.4441 22.7035 24.416 22.7162C24.3525 22.7446 24.2891 22.7732 24.2254 22.8016C24.2131 22.8071 24.201 22.8126 24.1883 22.8182C23.8243 22.9823 23.4602 23.1463 23.0961 23.3135C22.8399 23.4309 22.5836 23.5479 22.3258 23.662C22.1927 23.7215 22.0602 23.7812 21.9274 23.8416C21.9141 23.8476 21.9008 23.8536 21.8871 23.8598C21.6918 23.9476 21.4965 24.0363 21.3027 24.1254C21.0527 24.2401 20.8011 24.3535 20.5511 24.466C20.4029 24.5326 20.2543 24.5996 20.1058 24.666C20.0705 24.682 20.0352 24.6979 19.9997 24.7138C19.9697 24.7274 19.94 24.7412 19.9104 24.7554C19.8916 24.7642 19.8916 24.7642 19.8724 24.7732C19.8618 24.7783 19.8511 24.7834 19.8404 24.7887C19.8125 24.7975 19.8125 24.7975 19.7657 24.7819C19.7653 24.6623 19.765 24.5428 19.7648 24.4225C19.7647 24.3817 19.7646 24.3411 19.7645 24.3003C19.7643 24.2419 19.7642 24.1834 19.7641 24.1253C19.7641 24.107 19.764 24.0888 19.7639 24.0698C19.7639 24.053 19.7639 24.0361 19.7639 24.0186C19.7639 24.0037 19.7638 23.9887 19.7638 23.9734C19.7657 23.9377 19.7657 23.9377 19.7813 23.9064C19.8221 23.8862 19.8627 23.8678 19.9044 23.8498C19.9332 23.8372 19.9619 23.8244 19.9907 23.8117C20.015 23.8009 20.015 23.8009 20.04 23.7898C20.0991 23.7634 20.1579 23.7367 20.2166 23.7097C20.2274 23.7047 20.2383 23.6997 20.2494 23.6946C20.2719 23.6843 20.2944 23.6738 20.3171 23.6635C20.5171 23.5718 20.7171 23.4823 20.9186 23.3932C21.1311 23.2992 21.3436 23.2026 21.5546 23.1042C21.7358 23.0201 21.9171 22.937 22.0999 22.8557C22.2416 22.7924 22.3827 22.7285 22.5233 22.6635C22.6843 22.5904 22.8452 22.5177 23.0061 22.4463C23.1858 22.3662 23.364 22.2838 23.5436 22.2026C23.7171 22.1234 23.889 22.0448 24.064 21.9682C24.2127 21.9017 24.3608 21.834 24.5093 21.7667C24.6952 21.6817 24.8811 21.5979 25.0671 21.5151C25.2061 21.4529 25.3452 21.3901 25.4827 21.3276C25.6749 21.2398 25.8686 21.1526 26.0624 21.0651C26.2655 20.974 26.4671 20.8823 26.6702 20.7901C26.6817 20.7848 26.6932 20.7796 26.705 20.7742C26.7164 20.769 26.7277 20.7638 26.7393 20.7585C26.9049 20.6828 27.0705 20.6076 27.2361 20.5335C27.5018 20.4146 27.7674 20.2945 28.033 20.1757C28.0471 20.1694 28.0611 20.163 28.0757 20.1565C28.1165 20.1381 28.1572 20.1196 28.1982 20.101C28.211 20.0952 28.2238 20.0894 28.2371 20.0834C28.3296 20.0415 28.4215 19.9988 28.5136 19.9557C28.5486 19.9402 28.5486 19.9402 28.5643 19.9402L28.5625 19.9375Z" fill="url(#paint3_linear_74_8)"/>
</g>
<defs>
<linearGradient id="paint0_linear_74_8" x1="6.81249" y1="17.7502" x2="22.75" y2="20.2502" gradientUnits="userSpaceOnUse">
<stop stop-color="#353535"/>
<stop offset="1" stop-color="white"/>
</linearGradient>
<linearGradient id="paint1_linear_74_8" x1="23.375" y1="23.3749" x2="20.5625" y2="16.8124" gradientUnits="userSpaceOnUse">
<stop stop-color="white"/>
<stop offset="1" stop-color="#2C2C2C"/>
</linearGradient>
<linearGradient id="paint2_linear_74_8" x1="14.9375" y1="24.8148" x2="3.37495" y2="24.8148" gradientUnits="userSpaceOnUse">
<stop stop-color="#D0D0D0"/>
<stop offset="1" stop-color="#0D0D0D"/>
</linearGradient>
<linearGradient id="paint3_linear_74_8" x1="33.0626" y1="22.4375" x2="19.6251" y2="25.875" gradientUnits="userSpaceOnUse">
<stop stop-color="white"/>
<stop offset="1" stop-color="#363636"/>
</linearGradient>
<clipPath id="clip0_74_8">
<rect width="25" height="25" fill="white" transform="translate(4 4)"/>
</clipPath>
</defs>
</svg>
