<svg width="153" height="40" viewBox="0 0 153 40" fill="none" xmlns="http://www.w3.org/2000/svg">
<g clip-path="url(#clip0_33_147)">
<path d="M10.1 18.2999C10.2237 18.3919 10.3135 18.4992 10.41 18.6199C10.4835 18.7114 10.5607 18.7997 10.638 18.8874C10.7505 19.0162 10.86 19.1474 10.968 19.2799C11.2112 19.5774 11.463 19.8674 11.738 20.1349C11.7877 20.1859 11.8342 20.2374 11.8805 20.2917C11.9935 20.4219 12.1165 20.5417 12.2405 20.6642C12.3785 20.8004 12.5155 20.9367 12.6405 21.0842C12.6907 21.1422 12.7437 21.1967 12.7982 21.2507C12.817 21.2695 12.8357 21.2882 12.855 21.3077C12.9 21.3537 12.9 21.3537 12.953 21.3774V21.4274C12.9674 21.4336 12.9817 21.4397 12.9965 21.4461C13.0617 21.4823 13.1045 21.5251 13.156 21.5791C13.2222 21.6503 13.2222 21.6503 13.303 21.7026V21.7526C13.3227 21.7602 13.3227 21.7602 13.3427 21.7681C13.4295 21.8176 13.4952 21.8851 13.567 21.9541C13.695 22.0751 13.827 22.1896 13.9645 22.2991C14.0302 22.3528 14.093 22.4088 14.1555 22.4661C14.2757 22.5753 14.401 22.6768 14.528 22.7761C14.5537 22.7963 14.5792 22.8166 14.6057 22.8373C14.6797 22.8956 14.7537 22.9538 14.828 23.0118C14.8627 23.0391 14.8975 23.0663 14.932 23.0936C15.1617 23.2743 15.392 23.4511 15.632 23.6186C15.681 23.6531 15.7297 23.6878 15.7785 23.7228C16.0047 23.8846 16.2335 24.0378 16.4685 24.1878C16.5307 24.2276 16.5927 24.2676 16.6547 24.3078C17.1472 24.6253 17.6522 24.9153 18.1672 25.1928C18.2197 25.2211 18.272 25.2496 18.3242 25.2783C19.0967 25.7008 19.9167 26.0558 20.7492 26.3483C20.8155 26.3719 20.881 26.3963 20.9462 26.4218C21.6187 26.6843 22.3262 26.8618 23.0262 27.0268L23.1087 27.0466C23.5312 27.1471 23.9587 27.2181 24.3862 27.2879C24.4145 27.2925 24.4427 27.2971 24.4717 27.3019C24.5525 27.3152 24.6335 27.3282 24.7142 27.3409C24.7387 27.345 24.7632 27.349 24.7885 27.3531C24.8113 27.3567 24.834 27.3602 24.8575 27.3638C24.8773 27.367 24.8972 27.3701 24.9175 27.3734C25.0577 27.3821 25.1725 27.3229 25.2975 27.2644C25.3167 27.2555 25.336 27.2466 25.3557 27.2374C25.3972 27.2181 25.4385 27.1989 25.48 27.1794C25.568 27.1382 25.6562 27.0972 25.745 27.0562C25.7902 27.0352 25.8352 27.0142 25.8805 26.9932C26.085 26.8982 26.2905 26.8044 26.4955 26.7107C26.5627 26.6802 26.6302 26.6497 26.6975 26.6192C26.7225 26.6078 26.7225 26.6078 26.748 26.5963C26.9452 26.5068 27.143 26.4165 27.3405 26.3263C27.6405 26.189 27.9405 26.0513 28.2405 25.9163C28.508 25.7953 28.773 25.6738 29.0405 25.5513C29.3405 25.414 29.6405 25.2763 29.9405 25.1413C30.1387 25.0513 30.3355 24.961 30.5355 24.8713C30.5549 24.8624 30.5742 24.8535 30.5942 24.8443C30.6875 24.8015 30.7807 24.7588 30.8742 24.716C31.0425 24.6388 31.2117 24.563 31.3817 24.4893C31.558 24.4128 31.7317 24.332 31.9067 24.2503C31.9927 24.21 32.0792 24.1703 32.1642 24.1305C32.1822 24.1222 32.2002 24.114 32.2187 24.1055C32.2755 24.0795 32.332 24.0535 32.3887 24.0275C32.4187 24.0138 32.4187 24.0138 32.4492 23.9998C32.7642 23.8548 33.0817 23.7098 33.3967 23.5673C33.6432 23.4553 33.8892 23.343 34.1367 23.2298C34.1548 23.2215 34.173 23.2132 34.1915 23.2048C34.3977 23.1105 34.604 23.016 34.809 22.9198C34.8862 22.8843 34.9635 22.8485 35.0407 22.813C35.0598 22.8042 35.0788 22.7955 35.0985 22.7865C35.314 22.6873 35.531 22.589 35.746 22.494C35.7755 22.4808 35.7755 22.4808 35.8057 22.4675C35.903 22.4243 36.0005 22.3815 36.0982 22.3393C36.3202 22.2433 36.3202 22.2433 36.5332 22.127C36.9132 21.8968 37.3607 21.9588 37.7882 21.9748C37.904 21.9787 38.02 21.9811 38.1357 21.9835C38.3675 21.9886 38.5982 21.9949 38.8307 22.0021C38.791 22.0818 38.7082 22.0976 38.6292 22.1301C38.4775 22.1946 38.3292 22.2636 38.1817 22.3383C37.9957 22.4323 37.8092 22.5236 37.6217 22.6133C37.6047 22.6216 37.5877 22.6298 37.5702 22.6383C37.3582 22.7411 37.1452 22.8408 36.9302 22.9358C36.8007 22.9926 36.6752 23.0543 36.5477 23.1181C36.0927 23.3481 35.6302 23.5631 35.1678 23.7756C35.028 23.8403 34.8877 23.9053 34.7502 23.9711C34.7253 23.9828 34.7253 23.9828 34.7 23.9947C34.5987 24.0427 34.4982 24.0925 34.3975 24.1427C34.1715 24.2565 33.9425 24.3657 33.715 24.4727C33.605 24.5247 33.495 24.5767 33.385 24.629C33.3522 24.6445 33.3522 24.6445 33.3187 24.6605C33.1285 24.7507 32.9387 24.8422 32.7487 24.933C32.4837 25.0612 32.2187 25.1855 31.9512 25.308C31.8025 25.3765 31.6562 25.4472 31.5087 25.521C31.3247 25.6137 31.1387 25.7022 30.9512 25.7885C30.6587 25.9255 30.3662 26.0635 30.0737 26.206C30.0588 26.2132 30.044 26.2204 30.0285 26.2279C29.9557 26.2631 29.883 26.2984 29.8102 26.3336C29.6632 26.4046 29.5152 26.4749 29.3678 26.5451C29.2397 26.6061 29.1127 26.6676 28.9852 26.7294C28.7077 26.8636 28.4302 26.9969 28.1502 27.1219C28.013 27.1831 27.8777 27.2484 27.7452 27.3166C27.5752 27.4026 27.4028 27.4819 27.2302 27.5616C26.9502 27.6901 26.9502 27.6901 26.6752 27.8266C26.2802 28.0271 25.8777 28.2141 25.4777 28.4016C25.4482 28.4153 25.4187 28.4291 25.3885 28.4431C25.2307 28.5161 25.2307 28.5161 25.156 28.5501L25.0735 28.5916C24.9607 28.6326 24.8705 28.6336 24.751 28.6301C24.7037 28.6294 24.6565 28.6287 24.6092 28.628C24.5717 28.6273 24.5717 28.6273 24.5332 28.6265C24.4537 28.6251 24.3745 28.6247 24.295 28.6245C22.2475 28.6202 20.195 28.481 16.245 27.912C16.1732 27.8992 16.1012 27.8865 16.0295 27.874C15.4245 27.7675 14.822 27.6528 14.2245 27.509C14.116 27.4833 14.0072 27.4588 13.897 27.4353C13.0195 27.2455 12.147 27.0078 11.297 26.7503C11.2102 26.7245 11.123 26.6993 11.037 26.6743C10.542 26.5313 10.0595 26.3618 9.5745 26.1918C9.41875 26.1368 9.262 26.0828 9.107 26.0295C8.8585 25.9448 8.6145 25.854 8.3695 25.7545C8.24225 25.7025 8.1145 25.6525 7.987 25.6028C7.3995 25.3743 6.8245 25.1253 6.2495 24.8653C6.1665 24.8278 6.08325 24.7903 6 24.753C5.7375 24.635 5.48 24.5115 5.2275 24.3755C5.057 24.2843 4.885 24.1968 4.7125 24.108C4.23 23.8605 3.75 23.608 3.2875 23.3255C3.20225 23.2735 3.11625 23.2228 3.03 23.1725C2.4225 22.82 2.4225 22.82 2.2825 22.505C2.236 22.3073 2.2589 22.15 2.36375 21.975C2.4215 21.9078 2.4215 21.9078 2.48875 21.85C2.50567 21.8336 2.50567 21.8336 2.523 21.8168C2.6545 21.694 2.8055 21.6238 2.968 21.5493C2.99775 21.5352 3.0275 21.521 3.05825 21.5065C3.34075 21.3738 3.62325 21.2465 3.90825 21.1215C4.1325 21.0218 4.35575 20.9203 4.58075 20.819C4.60317 20.8089 4.6255 20.7987 4.64875 20.7883C4.93625 20.6585 5.22125 20.5283 5.50875 20.3958C5.89875 20.2173 6.28875 20.0433 6.68125 19.8683C6.707 19.8569 6.707 19.8569 6.73325 19.8453C6.8045 19.8138 6.876 19.782 6.9475 19.7505C7.174 19.6505 7.4 19.549 7.6225 19.443C7.78775 19.3655 7.955 19.2895 8.12 19.2135C8.13847 19.2051 8.157 19.1966 8.176 19.188C8.5085 19.0358 8.8435 18.8855 9.1785 18.738C9.35925 18.6583 9.5385 18.577 9.7185 18.493C9.73547 18.485 9.7525 18.4771 9.77 18.4688C9.8865 18.4136 10.002 18.3566 10.1175 18.2986L10.1 18.2999Z" fill="url(#paint0_linear_33_147)"/>
<path d="M22.025 7.17503C22.3225 7.40978 22.5475 7.66503 22.735 7.99503C22.7485 8.01835 22.7485 8.01835 22.7622 8.04203C22.855 8.20228 22.9455 8.36203 23.0247 8.52953C23.1722 8.83703 23.3547 9.12453 23.5347 9.41453C23.5757 9.48078 23.6165 9.54728 23.6572 9.61378C23.789 9.82803 23.9297 10.0363 24.0722 10.2413C24.1092 10.294 24.146 10.347 24.1827 10.4C24.3217 10.5995 24.4652 10.795 24.6177 10.985C24.6732 11.0545 24.7272 11.125 24.7807 11.1958C24.8827 11.3305 24.9897 11.4583 25.1032 11.5833C25.1585 11.6445 25.2097 11.7078 25.2612 11.7723C25.4745 12.0348 25.7137 12.2773 25.9562 12.5148C26.0055 12.565 26.0515 12.6165 26.0967 12.6703C26.1802 12.7678 26.2737 12.851 26.3692 12.9353C26.454 13.0118 26.5337 13.0925 26.6132 13.1745C26.656 13.22 26.656 13.22 26.7085 13.2433V13.2933C26.7297 13.3025 26.7297 13.3025 26.7512 13.3119C26.8182 13.3487 26.8667 13.3927 26.9225 13.4449C27.0327 13.5459 27.1462 13.6417 27.2625 13.7349C27.3342 13.7934 27.4047 13.8529 27.4755 13.9129C27.656 14.0634 27.843 14.2029 28.033 14.3429C28.06 14.3628 28.06 14.3628 28.0875 14.3832C28.545 14.7207 29.02 15.0257 29.5075 15.3182C29.5952 15.3709 29.6825 15.4239 29.77 15.4774C30.2275 15.7574 30.705 15.9949 31.185 16.2324C31.2385 16.2592 31.2917 16.2862 31.3447 16.3134C33.5797 17.4584 36.0947 18.0359 38.5697 18.3109C38.6082 18.3152 38.6082 18.3152 38.6472 18.3196C38.7767 18.3337 38.9072 18.3458 39.0372 18.3551C39.063 18.357 39.0885 18.3589 39.115 18.3609C39.163 18.3643 39.2112 18.3675 39.2595 18.3702C39.4452 18.3835 39.6195 18.4277 39.7695 18.5434C39.9022 18.7004 39.988 18.8509 40.0172 19.0559C39.983 19.2957 39.8725 19.4834 39.6797 19.6309C39.51 19.7402 39.3197 19.8169 39.1372 19.8984C38.9637 19.9752 38.7922 20.0542 38.6197 20.1332C38.5247 20.1767 38.4295 20.2202 38.3347 20.2637C38.306 20.2768 38.306 20.2768 38.2767 20.2902C38.0825 20.3789 37.8892 20.4674 37.6942 20.5552C37.4117 20.6834 37.1292 20.8127 36.8467 20.9402C36.8286 20.9484 36.8105 20.9567 36.7917 20.9652C36.6632 21.0239 36.5342 21.0829 36.4067 21.1417C35.8242 21.4092 35.2392 21.6742 34.6567 21.9392C34.5372 21.9934 34.4177 22.0477 34.2992 22.1019C34.2823 22.1096 34.2652 22.1173 34.248 22.1252C33.963 22.2552 33.6755 22.3852 33.3905 22.5152C33.1255 22.6365 32.8605 22.757 32.5955 22.8777C32.313 23.006 32.0305 23.1352 31.748 23.2627C31.7299 23.271 31.7117 23.2793 31.693 23.2877C31.5645 23.3465 31.4355 23.4055 31.308 23.4642C31.1612 23.5315 31.0155 23.5987 30.868 23.6657C30.8499 23.674 30.8317 23.6823 30.813 23.6907C30.533 23.8192 30.2505 23.9482 29.9705 24.0757C29.703 24.1967 29.438 24.3182 29.1705 24.4407C28.888 24.5702 28.603 24.7007 28.3205 24.8282C28.038 24.9565 27.7555 25.0857 27.473 25.2132C27.446 25.2256 27.446 25.2256 27.4185 25.2382C27.2512 25.3147 27.0835 25.3912 26.916 25.4677C26.8772 25.4855 26.8382 25.5032 26.7995 25.5209C26.7804 25.5297 26.7612 25.5384 26.7417 25.5474C26.5947 25.6147 26.4467 25.6817 26.3017 25.7487C26.202 25.7942 26.1025 25.8402 26.0017 25.8862C25.5117 26.1129 25.1567 26.1637 24.6242 26.0772C24.6037 26.0739 24.583 26.0706 24.562 26.0672C22.7645 25.7772 21.012 25.2372 19.387 24.4347C19.297 24.3907 19.2067 24.3477 19.117 24.3044C18.2595 23.8944 18.2595 23.8944 17.8795 23.6519C17.7812 23.5902 17.6815 23.5314 17.582 23.4719C17.4522 23.3947 17.322 23.3164 17.1945 23.2384C17.1751 23.2268 17.1557 23.2151 17.136 23.2032C16.8685 23.0414 16.6135 22.8657 16.3585 22.6832C16.2942 22.6377 16.2297 22.5929 16.165 22.5479C15.805 22.2987 15.455 22.0429 15.12 21.7629C15.055 21.7097 14.9897 21.6567 14.9247 21.6034L14.873 21.5612C14.7775 21.4837 14.6812 21.4074 14.583 21.3322C14.4067 21.1962 14.243 21.0497 14.0805 20.8972C13.9567 20.7812 13.8305 20.6684 13.7005 20.5572C13.3555 20.2547 13.0305 19.9297 12.708 19.6047C12.643 19.5394 12.578 19.4744 12.5127 19.4094C12.4617 19.3587 12.411 19.3077 12.36 19.2567C12.3245 19.2212 12.289 19.1857 12.2535 19.1504C12.1282 19.0247 12.0082 18.8954 11.8935 18.7604C11.852 18.7144 11.8102 18.6687 11.7685 18.6229C11.682 18.5282 11.5967 18.4324 11.5135 18.3354C11.464 18.2789 11.4137 18.2237 11.3632 18.1679C11.168 17.9512 10.9807 17.7279 10.8032 17.4979C10.7272 17.4004 10.6492 17.3049 10.5702 17.2104C10.3607 16.9579 10.1652 16.6979 9.97024 16.4354C9.94739 16.4044 9.94739 16.4044 9.92399 16.3729C9.83574 16.2537 9.74799 16.1344 9.66149 16.0154C9.62374 15.9642 9.58599 15.9129 9.54799 15.8619C9.29299 15.5169 9.05548 15.1644 8.81798 14.8069C8.80746 14.7911 8.79691 14.7754 8.78599 14.7592C8.42849 14.2242 8.08849 13.6842 7.77099 13.1242C7.67524 12.9552 7.57824 12.7867 7.47849 12.6217C7.13849 12.0467 6.84598 11.4892 7.00598 10.8042C7.08873 10.4917 7.26348 10.2367 7.49348 10.0092C7.50753 9.99513 7.52149 9.98115 7.53599 9.96665C7.94599 9.58915 8.54599 9.49665 9.06849 9.37415C9.15299 9.3541 9.23749 9.3339 9.32099 9.31365C9.48224 9.27515 9.64349 9.23665 9.80349 9.1984C10.0005 9.15165 10.1985 9.10465 10.396 9.05765C10.4135 9.05348 10.431 9.04928 10.449 9.04498C10.555 9.01973 10.555 9.01973 10.661 8.99448C10.7497 8.97333 10.8382 8.95223 10.926 8.93098C11.381 8.82273 11.8335 8.71348 12.286 8.60098C12.8285 8.46723 13.371 8.33598 13.9135 8.20598C13.9344 8.20095 13.9552 8.19593 13.9767 8.19075C14.1692 8.1445 14.3617 8.09825 14.5542 8.052C14.8492 7.98125 15.1442 7.9105 15.4367 7.83975C15.457 7.83488 15.4772 7.82998 15.4982 7.82495C15.5802 7.80525 15.662 7.78545 15.744 7.7657C15.887 7.7312 16.029 7.69695 16.174 7.66245C16.509 7.58195 16.8415 7.5017 17.1765 7.4212C17.1981 7.416 17.2197 7.41078 17.242 7.4054C17.3295 7.38435 17.417 7.3634 17.5045 7.3424C17.738 7.28615 17.972 7.23015 18.2045 7.1739C18.2246 7.16905 18.2447 7.1642 18.2655 7.15923C18.345 7.14013 18.4245 7.12098 18.504 7.10198C18.7272 7.04823 18.9515 6.99448 19.174 6.94073C19.282 6.91448 19.3902 6.88848 19.499 6.86248C19.5462 6.85105 19.5937 6.8396 19.641 6.82798C20.486 6.62273 21.3085 6.60573 22.031 7.16548L22.025 7.17503ZM19.8625 8.16253C19.8115 8.17493 19.7605 8.18728 19.7095 8.19953C19.5735 8.23253 19.437 8.26603 19.302 8.29953C19.1602 8.33453 19.0195 8.36878 18.877 8.40328C18.6782 8.45153 18.4795 8.50003 18.282 8.54853C17.987 8.62078 17.692 8.69228 17.3945 8.76278C17.3763 8.7671 17.358 8.77143 17.3392 8.7759C17.2515 8.79678 17.1635 8.81765 17.0767 8.8384C16.5392 8.96565 16.0042 9.0959 15.4692 9.2284C15.1392 9.31015 14.8067 9.39065 14.4742 9.4699C14.4564 9.47415 14.4385 9.47843 14.4202 9.4828C14.229 9.5283 14.0377 9.5738 13.8452 9.6193C13.4377 9.71605 13.0302 9.8148 12.6252 9.9143C12.2002 10.0186 11.7752 10.1218 11.3502 10.2243C11.324 10.2306 11.298 10.2369 11.271 10.2433C11.032 10.3006 10.7935 10.3578 10.5535 10.4148C10.2685 10.4828 9.98349 10.5513 9.69849 10.6201C9.55924 10.6538 9.41849 10.6868 9.28099 10.7196C9.19749 10.7392 9.11374 10.7593 9.03099 10.7793C8.99299 10.7884 8.95498 10.7973 8.91673 10.8061C8.61423 10.8753 8.61423 10.8753 8.36173 11.0466C8.30198 11.1428 8.29798 11.2358 8.31173 11.3466C8.33501 11.4101 8.35799 11.4628 8.38974 11.5216C8.39851 11.5384 8.40726 11.5551 8.41624 11.5726C8.52674 11.7808 8.64749 11.9826 8.76624 12.1851C8.84524 12.3191 8.92274 12.4526 8.99974 12.5876C9.34974 13.2001 9.73724 13.7901 10.1297 14.3751C10.1565 14.4148 10.1835 14.4548 10.2102 14.4948C10.4105 14.7923 10.6202 15.0823 10.8352 15.3698C10.8563 15.3981 10.8775 15.4266 10.8985 15.4548C11.0935 15.7173 11.2935 15.9748 11.496 16.2273C11.569 16.3183 11.6415 16.4098 11.713 16.5023C11.9167 16.7648 12.133 17.0148 12.3555 17.2598C12.4095 17.3211 12.4607 17.3841 12.5117 17.4481C12.6275 17.5916 12.753 17.7256 12.8792 17.8581C12.8948 17.8744 12.9102 17.8908 12.9262 17.9076C12.9471 17.9293 12.9471 17.9293 12.9682 17.9516C13.0075 17.9953 13.0075 17.9953 13.047 18.0508C13.0587 18.0655 13.0704 18.0803 13.0825 18.0953H13.1325C13.1378 18.1088 13.1431 18.1223 13.1486 18.1361C13.1951 18.2173 13.2588 18.2778 13.3251 18.3428C13.3391 18.3568 13.3531 18.3708 13.3676 18.3853C13.4126 18.4298 13.4576 18.4743 13.5026 18.5188C13.5326 18.5486 13.5626 18.5783 13.5926 18.6083C13.6481 18.6633 13.7036 18.7183 13.7591 18.7733C13.8493 18.8623 13.9391 18.9521 14.0291 19.0433C14.1551 19.1706 14.2816 19.2958 14.4191 19.4108C14.4596 19.4458 14.4596 19.4458 14.5188 19.5068C14.5561 19.5516 14.5561 19.5516 14.6093 19.5458V19.5958C14.6438 19.6316 14.6438 19.6316 14.6906 19.6693C14.7793 19.7446 14.8651 19.8226 14.9506 19.9021C15.0741 20.0168 15.2031 20.1218 15.3356 20.2246C15.4121 20.2838 15.4868 20.3436 15.5588 20.4081C15.6606 20.4991 15.7678 20.5823 15.8763 20.6656C15.9666 20.7358 16.0551 20.8076 16.1413 20.8811C16.3061 21.0168 16.4813 21.1361 16.6563 21.2586C16.7323 21.3118 16.8078 21.3658 16.8833 21.4198C16.9121 21.4404 16.9411 21.4608 16.9698 21.4813C17.0303 21.5243 17.0901 21.5681 17.1498 21.6121C17.4398 21.8226 17.7423 22.0071 18.0498 22.1896C18.1483 22.2483 18.2463 22.3081 18.3448 22.3681C18.6873 22.5786 19.0398 22.7706 19.3973 22.9506C19.4818 22.9936 19.5653 23.0376 19.6498 23.0821C20.0448 23.2898 20.4523 23.4621 20.8673 23.6296C20.8933 23.6399 20.9193 23.6503 20.9461 23.6611C21.4436 23.8586 21.9436 24.0511 22.4561 24.2086C22.4856 24.2176 22.5151 24.2267 22.5453 24.2361C23.2828 24.4588 24.0378 24.6236 24.7978 24.7561C24.8224 24.7605 24.8471 24.7649 24.8723 24.7694C24.8951 24.7732 24.9181 24.777 24.9416 24.781C24.9613 24.7843 24.9811 24.7877 25.0013 24.7912C25.1308 24.7996 25.2351 24.7649 25.3513 24.7097C25.3781 24.697 25.4051 24.6844 25.4326 24.6714C25.4616 24.6576 25.4903 24.6437 25.5203 24.6294C25.5833 24.5997 25.6466 24.5699 25.7096 24.5402C25.726 24.5324 25.7423 24.5247 25.7593 24.5167C25.9481 24.4279 26.1368 24.3419 26.3268 24.2567C26.5721 24.1457 26.8168 24.0339 27.0618 23.9217C27.3193 23.8022 27.5793 23.6842 27.8368 23.5667C28.0893 23.4522 28.3418 23.3372 28.5943 23.2217C28.8943 23.0849 29.1918 22.9492 29.4918 22.8117C29.5084 22.8041 29.5251 22.7966 29.5421 22.7888C29.7478 22.6953 29.9546 22.6023 30.1596 22.5088C30.2453 22.4703 30.3308 22.4318 30.4171 22.3935C30.4382 22.384 30.4593 22.3745 30.4813 22.3648C30.7763 22.2328 31.0688 22.0973 31.3588 21.9598C31.5853 21.8533 31.8138 21.7513 32.0438 21.6523C32.2351 21.57 32.4238 21.4835 32.6113 21.3948C32.8638 21.2743 33.1163 21.1553 33.3713 21.0423C33.5078 20.9813 33.6438 20.9193 33.7813 20.857C33.7987 20.849 33.8161 20.841 33.8341 20.8328C33.8706 20.8161 33.9068 20.7993 33.9433 20.7828C34.2833 20.6263 34.6258 20.4728 34.9683 20.3203C35.2683 20.1876 35.5658 20.0503 35.8633 19.9078C36.1508 19.7711 36.4408 19.6403 36.7358 19.5203V19.4453C36.5093 19.3858 36.2833 19.3328 36.0533 19.2851C35.1333 19.0928 34.2308 18.8651 33.3283 18.5626C33.2723 18.5437 33.2163 18.5248 33.1606 18.5063C32.4381 18.2638 31.7306 17.9863 31.0406 17.6613C30.9533 17.6203 30.8658 17.5803 30.7781 17.5406C30.1156 17.2381 29.4731 16.9006 28.8531 16.5156C28.7718 16.4656 28.6903 16.4163 28.6086 16.3673C28.3061 16.1846 28.0161 15.9948 27.7311 15.7848C27.6286 15.7098 27.5236 15.6381 27.4186 15.5658C27.1411 15.3728 26.8786 15.1658 26.6211 14.9458C26.5241 14.8631 26.4246 14.7846 26.3236 14.7068C26.1621 14.5818 26.0136 14.4468 25.8636 14.3068C25.8073 14.2538 25.7503 14.2016 25.6933 14.1493C25.5806 14.0461 25.4696 13.9413 25.3633 13.8318C25.3203 13.7898 25.2756 13.7508 25.2298 13.7116C25.0156 13.5266 24.7973 13.3191 24.6348 13.0866C24.623 13.0719 24.6111 13.0573 24.5988 13.0421H24.5488C24.5424 13.0274 24.536 13.0128 24.5294 12.9976C24.4961 12.9368 24.4601 12.9001 24.4096 12.8528C24.3091 12.7548 24.2216 12.6503 24.1346 12.5403C24.0829 12.4763 24.0296 12.4136 23.9759 12.3513C23.8484 12.2033 23.7294 12.0513 23.6134 11.8938C23.5154 11.7616 23.4136 11.6338 23.3084 11.5063C23.1946 11.3671 23.0981 11.2163 22.9984 11.0663C22.9626 11.0128 22.9269 10.9596 22.8909 10.9061C22.5759 10.4361 22.2734 9.96855 22.0059 9.47105C21.8746 9.22555 21.7384 8.98355 21.5984 8.74355C21.5878 8.72515 21.5773 8.7068 21.5664 8.6878C21.3874 8.3803 21.1714 8.1778 20.8339 8.0628C20.4964 7.99155 20.1789 8.08 19.8514 8.1613L19.8625 8.16253Z" fill="white"/>
<path d="M36.425 24.9751C36.5248 24.9772 36.6245 24.9773 36.725 24.9777C36.9125 24.9787 37.1 24.9813 37.2875 24.9846C37.5015 24.9883 37.715 24.9901 37.93 24.9917C38.37 24.9951 38.8075 25.0007 39.2475 25.008C39.194 25.0615 39.1575 25.078 39.0883 25.1063C39.0528 25.121 39.0528 25.121 39.0168 25.136C38.977 25.1523 38.977 25.1523 38.9365 25.169C38.634 25.2953 38.334 25.4265 38.034 25.559C37.9413 25.6 37.8485 25.6413 37.7565 25.6823C37.7332 25.6926 37.71 25.7029 37.686 25.7135C37.5223 25.786 37.3585 25.8583 37.1935 25.93C37.1595 25.945 37.1595 25.945 37.1248 25.9603C37.0373 25.9985 36.95 26.037 36.8623 26.0753C36.6153 26.1833 36.3698 26.2925 36.1223 26.4028C35.9645 26.4743 35.8048 26.5418 35.6448 26.6078C35.5123 26.6623 35.3823 26.7225 35.2523 26.7835C35.0363 26.8848 34.8173 26.9803 34.5998 27.076C34.5523 27.0969 34.505 27.1178 34.4575 27.1388C33.95 27.3628 33.4425 27.5863 32.9325 27.8088C32.2525 28.1063 31.575 28.4063 30.895 28.7063C30.7148 28.786 30.535 28.8658 30.355 28.9453C30.3328 28.9551 30.3108 28.9649 30.2878 28.975C29.9128 29.1403 29.5403 29.305 29.1653 29.47C28.9003 29.5863 28.6353 29.7028 28.3703 29.82C28.0553 29.9588 27.7403 30.0975 27.4253 30.235C27.4036 30.2446 27.382 30.2541 27.3595 30.2638C27.0595 30.3958 26.757 30.5263 26.457 30.6563C26.2978 30.725 26.1395 30.7943 25.982 30.8688C25.8588 30.9268 25.735 30.983 25.6095 31.0373C25.5928 31.0445 25.5763 31.0518 25.559 31.0592C25.5073 31.0817 25.4553 31.1042 25.4035 31.1267C25.3783 31.1377 25.3783 31.1377 25.3525 31.1488C25.2498 31.1933 25.147 31.2378 25.045 31.2815C25.0264 31.2903 25.0078 31.2991 24.9885 31.3083C24.9043 31.337 24.8343 31.3378 24.7453 31.3378C24.7279 31.3379 24.7105 31.3379 24.6925 31.338C24.634 31.3381 24.5755 31.3379 24.5168 31.3377C24.4743 31.3378 24.4318 31.3378 24.3893 31.3379C24.272 31.3381 24.1545 31.3379 24.0368 31.3377C23.9093 31.3375 23.7818 31.3376 23.6543 31.3377C23.4308 31.3378 23.2068 31.3378 22.9843 31.3375C22.6518 31.3372 22.3193 31.3372 21.9868 31.3373C21.4268 31.3373 20.8693 31.3372 20.3093 31.3369C19.7543 31.3366 19.2018 31.3364 18.6468 31.3363C18.6296 31.3363 18.6123 31.3363 18.5948 31.3363C18.4378 31.3363 18.2798 31.3363 18.1248 31.3363C17.7348 31.3363 17.3448 31.3362 16.9548 31.3361C16.937 31.3361 16.9193 31.3361 16.9008 31.3361C16.0358 31.336 15.1708 31.3357 14.3008 31.3354C14.0008 31.3352 13.7008 31.3351 13.4008 31.335C13.3728 31.335 13.3728 31.335 13.3443 31.335C12.4793 31.3347 11.6143 31.3345 10.7443 31.3343C10.688 31.3343 10.632 31.3343 10.5758 31.3343C10.2033 31.3343 9.83077 31.3342 9.45827 31.3341C8.71827 31.334 7.97577 31.3339 7.23577 31.3337C7.20052 31.3337 7.16527 31.3337 7.13002 31.3337C4.97502 31.3333 2.83002 31.3326 0.0800171 31.3316C0.139267 31.2723 0.188269 31.2548 0.266519 31.2243C0.295269 31.2129 0.324269 31.2015 0.354019 31.1898C0.369644 31.1837 0.38527 31.1776 0.40127 31.1713C0.48702 31.1378 0.572518 31.1038 0.658768 31.0698C0.686018 31.059 0.68602 31.059 0.71377 31.048C0.89477 30.9763 1.07627 30.903 1.25627 30.8295C1.67627 30.6588 2.09627 30.4895 2.51627 30.322C2.86627 30.182 3.21627 30.0395 3.56627 29.8945C3.82127 29.7888 4.07877 29.686 4.33627 29.5845C4.56302 29.496 4.78877 29.405 5.01377 29.3145C5.43627 29.1425 5.86127 28.972 6.28377 28.7995C6.30037 28.7928 6.31702 28.7862 6.33402 28.7793C6.83402 28.5773 7.33652 28.3768 7.83652 28.1768C8.18152 28.0388 8.52652 27.8993 8.87152 27.7593C8.89324 27.7505 8.91502 27.7417 8.93727 27.7325C8.98602 27.7121 9.03402 27.6908 9.08202 27.6688C9.10802 27.657 9.13402 27.6453 9.16102 27.6333C9.18432 27.6224 9.20752 27.6115 9.23152 27.6003C9.38277 27.557 9.52902 27.6155 9.67152 27.6628C9.68989 27.6686 9.70827 27.6745 9.72727 27.6806C9.76677 27.6932 9.80652 27.7061 9.84602 27.7188C9.95302 27.7533 10.0603 27.7873 10.1685 27.8216C10.1905 27.8286 10.2125 27.8355 10.235 27.8428C11.6875 28.3053 13.16 28.6928 14.66 29.0053C14.6833 29.0101 14.7065 29.015 14.7305 29.02C16.113 29.3075 17.5055 29.52 18.9055 29.68C18.9315 29.683 18.9578 29.686 18.9845 29.689C19.782 29.7798 20.5795 29.8428 21.382 29.8935C21.498 29.9009 21.614 29.9091 21.7295 29.9177C22.327 29.9607 22.9245 29.9717 23.5245 29.9827C23.6748 29.9855 23.8245 29.9887 23.9745 29.992C24.0915 29.9945 24.2088 29.9967 24.327 29.9989C24.3825 30 24.438 30.0012 24.4935 30.0024C24.5708 30.0041 24.6478 30.0055 24.725 30.0067C24.7474 30.0073 24.7698 30.0079 24.7928 30.0085C25.0198 30.0114 25.2203 29.972 25.4228 29.8685C25.4399 29.86 25.457 29.8515 25.4748 29.8427C25.5113 29.8246 25.5478 29.8065 25.5843 29.788C25.6818 29.7387 25.78 29.6907 25.8768 29.6422C25.9063 29.6276 25.9063 29.6276 25.9363 29.6127C26.106 29.529 26.2763 29.449 26.4488 29.3702C26.7538 29.2302 27.0538 29.0827 27.3563 28.9352C27.6413 28.7957 27.9263 28.6602 28.2163 28.5277C28.4603 28.4152 28.7013 28.2977 28.9438 28.1802C29.2138 28.0477 29.4863 27.9177 29.7588 27.7902C30.0238 27.668 30.2888 27.5417 30.5513 27.4127C30.57 27.4036 30.5888 27.3944 30.6083 27.385C30.682 27.349 30.7558 27.3132 30.8293 27.2772C31.1818 27.1055 31.5368 26.9372 31.8918 26.7747C32.0805 26.688 32.2693 26.6 32.4543 26.5072C32.8218 26.321 33.1968 26.1472 33.5718 25.9747C33.7595 25.8885 33.9468 25.801 34.1293 25.7072C34.3023 25.6197 34.4768 25.5347 34.6518 25.4522C34.7908 25.387 34.9268 25.3195 35.0618 25.245C35.5168 25.0007 35.8993 24.96 36.4093 24.9725L36.425 24.9751Z" fill="url(#paint1_linear_33_147)"/>
<path d="M1.00548e-05 31.875C2.29501 31.8746 4.60001 31.8742 7.10001 31.874C7.13526 31.874 7.17076 31.874 7.20601 31.874C7.94851 31.8739 8.69101 31.8738 9.43101 31.8738C9.80351 31.8737 10.176 31.8737 10.5485 31.8737C10.6048 31.8737 10.661 31.8737 10.7173 31.8737C11.5823 31.8736 12.4498 31.8735 13.3173 31.8733C13.3453 31.8733 13.3453 31.8733 13.3738 31.8733C13.6738 31.8733 13.9738 31.8732 14.2738 31.8732C15.1388 31.873 16.0038 31.8728 16.8738 31.8728C16.8915 31.8728 16.9093 31.8728 16.9275 31.8728C17.3175 31.8727 17.7075 31.8727 18.0975 31.8727C18.2545 31.8727 18.4125 31.8727 18.5675 31.8727C18.5847 31.8727 18.6018 31.8727 18.6195 31.8727C19.1745 31.8726 19.727 31.8725 20.282 31.8724C20.8545 31.8722 21.4295 31.8722 22.002 31.8722C22.332 31.8722 22.6645 31.8722 22.9945 31.872C23.215 31.8719 23.4345 31.8719 23.657 31.872C23.783 31.872 23.9095 31.872 24.0345 31.8719C24.1488 31.8718 24.2633 31.8718 24.377 31.8719C24.4183 31.872 24.4598 31.8719 24.501 31.8719C24.5568 31.8718 24.6123 31.8718 24.668 31.8719C24.7145 31.8719 24.7145 31.8719 24.7618 31.8719C24.8303 31.8751 24.8303 31.8751 24.8553 31.8999C24.8577 31.9427 24.8585 31.9857 24.8585 32.0287C24.8586 32.0699 24.8586 32.0699 24.8587 32.1119C24.8587 32.1417 24.8586 32.1717 24.8586 32.2024C24.8586 32.2329 24.8586 32.2632 24.8586 32.2947C24.8587 32.3592 24.8586 32.4237 24.8585 32.4882C24.8584 32.5872 24.8585 32.6864 24.8587 32.7857C24.8587 32.8482 24.8586 32.9107 24.8586 32.9732C24.8586 33.0029 24.8587 33.0329 24.8587 33.0637C24.8586 33.0912 24.8586 33.1187 24.8585 33.1469C24.8585 33.1834 24.8585 33.1834 24.8584 33.2204C24.8553 33.2754 24.8553 33.2754 24.8302 33.3004C24.7762 33.3029 24.7219 33.3035 24.6679 33.3035C24.6507 33.3036 24.6334 33.3036 24.6157 33.3036C24.5569 33.3037 24.4982 33.3036 24.4394 33.3035C24.3972 33.3035 24.3547 33.3036 24.3124 33.3036C24.1949 33.3037 24.0774 33.3036 23.9599 33.3035C23.8324 33.3034 23.7049 33.3035 23.5774 33.3035C23.3537 33.3036 23.1299 33.3035 22.9074 33.3034C22.5749 33.3033 22.2424 33.3032 21.9099 33.3033C21.3499 33.3033 20.7899 33.3032 20.2324 33.3031C19.6774 33.3029 19.1249 33.3028 18.5699 33.3028C18.5527 33.3028 18.5354 33.3028 18.5179 33.3028C18.3609 33.3028 18.2029 33.3028 18.0479 33.3028C17.6579 33.3028 17.2679 33.3027 16.8754 33.3027C16.8577 33.3027 16.8399 33.3027 16.8214 33.3027C15.9564 33.3026 15.0914 33.3025 14.2214 33.3023C13.9214 33.3023 13.6214 33.3022 13.3189 33.3021C13.3003 33.3021 13.2817 33.3021 13.2624 33.3021C12.3974 33.302 11.5299 33.3019 10.6624 33.3018C10.6062 33.3018 10.5499 33.3018 10.4939 33.3018C10.1214 33.3018 9.74892 33.3017 9.37642 33.3017C8.63642 33.3016 7.89392 33.3016 7.15392 33.3015C7.11867 33.3015 7.08343 33.3015 7.04792 33.3015C4.89542 33.3013 2.74792 33.3009 -0.0020752 33.3004V31.8754L1.00548e-05 31.875Z" fill="url(#paint2_linear_33_147)"/>
<path d="M39.3 25.5V26.925C38.9625 27.094 38.9625 27.094 38.82 27.1585C38.8044 27.1656 38.7887 27.1727 38.7727 27.18C38.7225 27.2029 38.672 27.2257 38.6217 27.2485C38.5955 27.2604 38.5955 27.2604 38.5685 27.2726C38.2535 27.4159 37.936 27.5576 37.6185 27.6951C37.4105 27.7861 37.2035 27.8804 36.9985 27.9776C36.8395 28.0521 36.681 28.1254 36.521 28.1989C36.5013 28.2079 36.4815 28.217 36.4612 28.2264C36.1412 28.3729 35.8212 28.5164 35.5012 28.6589C35.2412 28.7739 34.9812 28.8911 34.7237 29.0114C34.4882 29.1206 34.2512 29.2256 34.0137 29.3314C33.7637 29.4424 33.5137 29.5534 33.2662 29.6714C33.134 29.7349 33.0012 29.7959 32.8662 29.8559C32.8337 29.8704 32.8337 29.8704 32.8005 29.8854C32.7555 29.9056 32.7105 29.9256 32.6655 29.9459C32.564 29.9914 32.4625 30.0371 32.3605 30.0826C32.3409 30.0914 32.3215 30.1002 32.3012 30.1091C31.7187 30.3716 31.1362 30.6341 30.5537 30.9016C30.1437 31.0894 29.7337 31.2766 29.3212 31.4591C29.1082 31.5544 28.8962 31.6499 28.6837 31.7466C28.6624 31.7562 28.6412 31.7658 28.6192 31.7756C28.3067 31.9161 27.9942 32.0581 27.6842 32.2006C27.2842 32.3841 26.8817 32.5656 26.4817 32.7456C26.2445 32.8521 26.0067 32.9594 25.7692 33.0656C25.7127 33.0911 25.6562 33.1166 25.5995 33.1421C25.5515 33.1638 25.504 33.1859 25.4565 33.2086C25.4265 33.2228 25.4265 33.2228 25.3957 33.2371C25.3788 33.2453 25.3617 33.2535 25.3445 33.2619C25.3 33.276 25.3 33.276 25.225 33.251C25.2244 33.0597 25.2239 32.8685 25.2236 32.676C25.2235 32.6107 25.2233 32.5457 25.2231 32.4805C25.2228 32.387 25.2227 32.2935 25.2225 32.2005C25.2224 32.1712 25.2223 32.142 25.2222 32.1117C25.2222 32.0847 25.2222 32.0577 25.2222 32.0297C25.2221 32.0059 25.222 31.982 25.222 31.9575C25.225 31.9002 25.225 31.9002 25.25 31.8502C25.3152 31.818 25.3802 31.7885 25.447 31.7597C25.493 31.7394 25.539 31.719 25.585 31.6987C25.624 31.6815 25.624 31.6815 25.664 31.6637C25.7585 31.6215 25.8525 31.5787 25.9465 31.5355C25.9638 31.5275 25.9812 31.5196 25.999 31.5114C26.035 31.4948 26.071 31.4781 26.1072 31.4616C26.4272 31.3149 26.7472 31.1716 27.0697 31.0291C27.4097 30.8786 27.7497 30.7241 28.0872 30.5666C28.3772 30.4321 28.6672 30.2991 28.9597 30.1691C29.1865 30.0679 29.4122 29.9656 29.6372 29.8616C29.8947 29.7446 30.1522 29.6284 30.4097 29.5141C30.6972 29.3859 30.9822 29.2541 31.2697 29.1241C31.5472 28.9974 31.8222 28.8716 32.1022 28.7491C32.3402 28.6426 32.5772 28.5344 32.8147 28.4266C33.1122 28.2906 33.4097 28.1566 33.7072 28.0241C33.9297 27.9246 34.1522 27.8241 34.3722 27.7241C34.6797 27.5836 34.9897 27.4441 35.2997 27.3041C35.6247 27.1584 35.9472 27.0116 36.2722 26.8641C36.2906 26.8557 36.309 26.8473 36.328 26.8386C36.3461 26.8304 36.3642 26.8221 36.3827 26.8137C36.6477 26.6924 36.9127 26.5721 37.1777 26.4536C37.6027 26.2634 38.0277 26.0711 38.4527 25.8811C38.4752 25.871 38.4977 25.8608 38.521 25.8504C38.5862 25.8209 38.6515 25.7914 38.717 25.7616C38.7375 25.7523 38.758 25.7431 38.7792 25.7334C38.9272 25.6664 39.0742 25.5981 39.2217 25.5291C39.2777 25.5043 39.2777 25.5043 39.3027 25.5043L39.3 25.5Z" fill="url(#paint3_linear_33_147)"/>
</g>
<path d="M49.92 12.41V8.81H54.09V12.41H49.92ZM49.92 30.5V14.72H54.09V30.5H49.92ZM57.918 30.5V14.72H61.368L61.698 16.88H61.908C62.268 16.36 62.698 15.91 63.198 15.53C63.718 15.15 64.298 14.86 64.938 14.66C65.578 14.46 66.278 14.36 67.038 14.36C68.078 14.36 68.988 14.55 69.768 14.93C70.548 15.31 71.148 15.91 71.568 16.73C72.008 17.55 72.228 18.62 72.228 19.94V30.5H68.058V20.6C68.058 20.1 67.998 19.68 67.878 19.34C67.758 18.98 67.578 18.69 67.338 18.47C67.118 18.23 66.838 18.06 66.498 17.96C66.158 17.86 65.778 17.81 65.358 17.81C64.738 17.81 64.178 17.96 63.678 18.26C63.178 18.56 62.788 18.97 62.508 19.49C62.228 20.01 62.088 20.61 62.088 21.29V30.5H57.918ZM81.3949 30.5V13.67H74.7949V9.92H92.5249V13.67H85.8949V30.5H81.3949ZM96.9513 30.86C96.4313 30.86 95.8713 30.8 95.2713 30.68C94.6913 30.56 94.1413 30.35 93.6213 30.05C93.1013 29.73 92.6713 29.28 92.3313 28.7C92.0113 28.1 91.8513 27.34 91.8513 26.42C91.8513 25.32 92.0913 24.41 92.5713 23.69C93.0513 22.97 93.7313 22.41 94.6113 22.01C95.5113 21.59 96.5813 21.3 97.8213 21.14C99.0613 20.98 100.431 20.9 101.931 20.9V19.73C101.931 19.27 101.851 18.87 101.691 18.53C101.551 18.19 101.291 17.92 100.911 17.72C100.551 17.52 100.041 17.42 99.3813 17.42C98.7213 17.42 98.1813 17.5 97.7613 17.66C97.3613 17.82 97.0713 18.03 96.8913 18.29C96.7313 18.53 96.6513 18.8 96.6513 19.1V19.46H92.6013C92.5813 19.36 92.5713 19.27 92.5713 19.19C92.5713 19.09 92.5713 18.97 92.5713 18.83C92.5713 17.91 92.8513 17.12 93.4113 16.46C93.9713 15.78 94.7613 15.26 95.7813 14.9C96.8013 14.54 97.9913 14.36 99.3513 14.36C100.811 14.36 102.031 14.55 103.011 14.93C104.011 15.31 104.771 15.87 105.291 16.61C105.831 17.35 106.101 18.28 106.101 19.4V26.57C106.101 26.93 106.201 27.2 106.401 27.38C106.621 27.54 106.861 27.62 107.121 27.62H108.111V30.35C107.911 30.45 107.601 30.55 107.181 30.65C106.761 30.77 106.251 30.83 105.651 30.83C105.071 30.83 104.551 30.74 104.091 30.56C103.651 30.4 103.281 30.17 102.981 29.87C102.681 29.55 102.471 29.17 102.351 28.73H102.141C101.801 29.15 101.381 29.52 100.881 29.84C100.401 30.16 99.8313 30.41 99.1713 30.59C98.5313 30.77 97.7913 30.86 96.9513 30.86ZM98.3613 27.71C98.9213 27.71 99.4213 27.63 99.8613 27.47C100.301 27.29 100.671 27.06 100.971 26.78C101.271 26.48 101.501 26.12 101.661 25.7C101.841 25.28 101.931 24.83 101.931 24.35V23.48C100.811 23.48 99.8113 23.56 98.9313 23.72C98.0513 23.86 97.3513 24.11 96.8313 24.47C96.3313 24.83 96.0813 25.33 96.0813 25.97C96.0813 26.33 96.1713 26.64 96.3513 26.9C96.5313 27.16 96.7913 27.36 97.1313 27.5C97.4713 27.64 97.8813 27.71 98.3613 27.71ZM116.574 30.86C115.474 30.86 114.484 30.74 113.604 30.5C112.724 30.26 111.974 29.93 111.354 29.51C110.734 29.07 110.254 28.55 109.914 27.95C109.594 27.35 109.434 26.67 109.434 25.91C109.434 25.83 109.434 25.75 109.434 25.67C109.434 25.59 109.444 25.53 109.464 25.49H113.484C113.484 25.53 113.484 25.57 113.484 25.61C113.484 25.65 113.484 25.69 113.484 25.73C113.504 26.23 113.664 26.64 113.964 26.96C114.264 27.26 114.654 27.48 115.134 27.62C115.634 27.76 116.154 27.83 116.694 27.83C117.174 27.83 117.634 27.79 118.074 27.71C118.534 27.61 118.914 27.44 119.214 27.2C119.534 26.96 119.694 26.65 119.694 26.27C119.694 25.79 119.494 25.42 119.094 25.16C118.714 24.9 118.204 24.69 117.564 24.53C116.944 24.37 116.264 24.19 115.524 23.99C114.844 23.83 114.164 23.65 113.484 23.45C112.804 23.23 112.184 22.95 111.624 22.61C111.084 22.27 110.644 21.83 110.304 21.29C109.964 20.73 109.794 20.03 109.794 19.19C109.794 18.37 109.974 17.66 110.334 17.06C110.694 16.44 111.184 15.93 111.804 15.53C112.444 15.13 113.184 14.84 114.024 14.66C114.884 14.46 115.804 14.36 116.784 14.36C117.704 14.36 118.564 14.46 119.364 14.66C120.164 14.84 120.864 15.12 121.464 15.5C122.064 15.86 122.534 16.32 122.874 16.88C123.214 17.42 123.384 18.03 123.384 18.71C123.384 18.85 123.384 18.98 123.384 19.1C123.384 19.22 123.374 19.3 123.354 19.34H119.364V19.1C119.364 18.74 119.254 18.44 119.034 18.2C118.814 17.94 118.494 17.74 118.074 17.6C117.674 17.46 117.184 17.39 116.604 17.39C116.204 17.39 115.834 17.42 115.494 17.48C115.174 17.54 114.894 17.63 114.654 17.75C114.414 17.87 114.224 18.02 114.084 18.2C113.964 18.36 113.904 18.56 113.904 18.8C113.904 19.14 114.044 19.42 114.324 19.64C114.624 19.84 115.014 20.01 115.494 20.15C115.974 20.29 116.504 20.44 117.084 20.6C117.804 20.8 118.554 21 119.334 21.2C120.134 21.38 120.874 21.63 121.554 21.95C122.234 22.27 122.784 22.73 123.204 23.33C123.624 23.91 123.834 24.7 123.834 25.7C123.834 26.66 123.644 27.47 123.264 28.13C122.904 28.79 122.394 29.32 121.734 29.72C121.074 30.12 120.304 30.41 119.424 30.59C118.544 30.77 117.594 30.86 116.574 30.86ZM126.854 30.5V8.78H131.024V21.29L136.544 14.72H141.434L136.034 20.9L141.704 30.5H136.934L133.304 23.84L131.024 26.06V30.5H126.854Z" fill="white"/>
<defs>
<linearGradient id="paint0_linear_33_147" x1="4.5" y1="22" x2="30" y2="26" gradientUnits="userSpaceOnUse">
<stop stop-color="#353535"/>
<stop offset="1" stop-color="white"/>
</linearGradient>
<linearGradient id="paint1_linear_33_147" x1="31" y1="31" x2="26.5" y2="20.5" gradientUnits="userSpaceOnUse">
<stop stop-color="white"/>
<stop offset="1" stop-color="#2C2C2C"/>
</linearGradient>
<linearGradient id="paint2_linear_33_147" x1="17.5" y1="33.3037" x2="-1" y2="33.3037" gradientUnits="userSpaceOnUse">
<stop stop-color="#D0D0D0"/>
<stop offset="1" stop-color="#0D0D0D"/>
</linearGradient>
<linearGradient id="paint3_linear_33_147" x1="46.5" y1="29.5" x2="25" y2="35" gradientUnits="userSpaceOnUse">
<stop stop-color="white"/>
<stop offset="1" stop-color="#363636"/>
</linearGradient>
<clipPath id="clip0_33_147">
<rect width="40" height="40" fill="white"/>
</clipPath>
</defs>
</svg>
