<svg width="16" height="16" viewBox="0 0 16 16" fill="none" xmlns="http://www.w3.org/2000/svg">
<path d="M15.2916 3.09789L12.9023 0.708632C12.8469 0.653095 12.781 0.609038 12.7085 0.578979C12.636 0.548919 12.5582 0.533447 12.4797 0.533447C12.4012 0.533447 12.3235 0.548919 12.251 0.578979C12.1785 0.609038 12.1126 0.653095 12.0571 0.708632L4.88936 7.87641C4.83391 7.93192 4.78994 7.99781 4.75996 8.07032C4.72999 8.14284 4.71459 8.22054 4.71465 8.29901V10.6883C4.71465 10.8467 4.77758 10.9986 4.8896 11.1106C5.00162 11.2226 5.15355 11.2856 5.31196 11.2856H7.70122C7.77969 11.2856 7.85739 11.2702 7.9299 11.2403C8.00242 11.2103 8.06831 11.1663 8.12382 11.1109L15.2916 3.94309C15.3471 3.88762 15.3912 3.82174 15.4212 3.74923C15.4513 3.67671 15.4668 3.59899 15.4668 3.52049C15.4668 3.44199 15.4513 3.36427 15.4212 3.29175C15.3912 3.21924 15.3471 3.15336 15.2916 3.09789ZM7.45408 10.0909H5.90928V8.54614L10.6878 3.76763L12.2326 5.31243L7.45408 10.0909ZM13.0771 4.46798L11.5322 2.92318L12.4797 1.97569L14.0245 3.52049L13.0771 4.46798ZM14.869 8.29901V14.2722C14.869 14.589 14.7431 14.8928 14.5191 15.1169C14.2951 15.3409 13.9912 15.4668 13.6744 15.4668H1.72808C1.41124 15.4668 1.10738 15.3409 0.883346 15.1169C0.65931 14.8928 0.533447 14.589 0.533447 14.2722V2.32586C0.533447 2.00903 0.65931 1.70517 0.883346 1.48113C1.10738 1.25709 1.41124 1.13123 1.72808 1.13123H7.70122C7.85964 1.13123 8.01157 1.19416 8.12359 1.30618C8.23561 1.4182 8.29854 1.57013 8.29854 1.72855C8.29854 1.88696 8.23561 2.03889 8.12359 2.15091C8.01157 2.26293 7.85964 2.32586 7.70122 2.32586H1.72808V14.2722H13.6744V8.29901C13.6744 8.14059 13.7373 7.98866 13.8493 7.87664C13.9613 7.76462 14.1133 7.70169 14.2717 7.70169C14.4301 7.70169 14.582 7.76462 14.694 7.87664C14.8061 7.98866 14.869 8.14059 14.869 8.29901Z" fill="#ACACAC"/>
</svg>
