<svg width="14" height="16" viewBox="0 0 14 16" fill="none" xmlns="http://www.w3.org/2000/svg">
<path d="M13.3461 2.80769H10.4615V2.23077C10.4615 1.77174 10.2792 1.33151 9.95459 1.00693C9.63001 0.682348 9.18978 0.5 8.73075 0.5H5.26921C4.81018 0.5 4.36996 0.682348 4.04537 1.00693C3.72079 1.33151 3.53844 1.77174 3.53844 2.23077V2.80769H0.653827C0.500818 2.80769 0.354075 2.86848 0.245881 2.97667C0.137687 3.08486 0.0769043 3.23161 0.0769043 3.38462C0.0769043 3.53762 0.137687 3.68437 0.245881 3.79256C0.354075 3.90076 0.500818 3.96154 0.653827 3.96154H1.23075V14.3462C1.23075 14.6522 1.35232 14.9457 1.5687 15.162C1.78509 15.3784 2.07858 15.5 2.3846 15.5H11.6154C11.9214 15.5 12.2149 15.3784 12.4313 15.162C12.6476 14.9457 12.7692 14.6522 12.7692 14.3462V3.96154H13.3461C13.4991 3.96154 13.6459 3.90076 13.7541 3.79256C13.8623 3.68437 13.9231 3.53762 13.9231 3.38462C13.9231 3.23161 13.8623 3.08486 13.7541 2.97667C13.6459 2.86848 13.4991 2.80769 13.3461 2.80769ZM4.69229 2.23077C4.69229 2.07776 4.75307 1.93102 4.86127 1.82282C4.96946 1.71463 5.1162 1.65385 5.26921 1.65385H8.73075C8.88376 1.65385 9.0305 1.71463 9.1387 1.82282C9.24689 1.93102 9.30767 2.07776 9.30767 2.23077V2.80769H4.69229V2.23077ZM11.6154 14.3462H2.3846V3.96154H11.6154V14.3462ZM5.84614 6.84615V11.4615C5.84614 11.6145 5.78535 11.7613 5.67716 11.8695C5.56896 11.9777 5.42222 12.0385 5.26921 12.0385C5.1162 12.0385 4.96946 11.9777 4.86127 11.8695C4.75307 11.7613 4.69229 11.6145 4.69229 11.4615V6.84615C4.69229 6.69314 4.75307 6.5464 4.86127 6.43821C4.96946 6.33001 5.1162 6.26923 5.26921 6.26923C5.42222 6.26923 5.56896 6.33001 5.67716 6.43821C5.78535 6.5464 5.84614 6.69314 5.84614 6.84615ZM9.30767 6.84615V11.4615C9.30767 11.6145 9.24689 11.7613 9.1387 11.8695C9.0305 11.9777 8.88376 12.0385 8.73075 12.0385C8.57774 12.0385 8.431 11.9777 8.3228 11.8695C8.21461 11.7613 8.15383 11.6145 8.15383 11.4615V6.84615C8.15383 6.69314 8.21461 6.5464 8.3228 6.43821C8.431 6.33001 8.57774 6.26923 8.73075 6.26923C8.88376 6.26923 9.0305 6.33001 9.1387 6.43821C9.24689 6.5464 9.30767 6.69314 9.30767 6.84615Z" fill="#FF0000"/>
</svg>
